<svg xmlns="http://www.w3.org/2000/svg" width="960" height="520" viewBox="0 0 960 520" font-family="Arial, Helvetica, sans-serif">
<rect width="960" height="520" fill="#f6f8f8"/>
<text x="40" y="44" font-size="22" font-weight="700" fill="#16241f">Look-ahead vs reactive: CPU temperature over time</text>
<text x="40" y="70" font-size="13" fill="#56635f">Data view only — the finding/implication is written by the author.</text>
<rect x="70" y="100" width="850" height="330" fill="#ffffff" stroke="#e3e9e7"/>
<line x1="70" y1="430.0" x2="920" y2="430.0" stroke="#eef2f0"/>
<text x="62" y="434.0" text-anchor="end" font-size="11" fill="#8a948f">46</text>
<line x1="70" y1="364.0" x2="920" y2="364.0" stroke="#eef2f0"/>
<text x="62" y="368.0" text-anchor="end" font-size="11" fill="#8a948f">50</text>
<line x1="70" y1="298.0" x2="920" y2="298.0" stroke="#eef2f0"/>
<text x="62" y="302.0" text-anchor="end" font-size="11" fill="#8a948f">54</text>
<line x1="70" y1="232.0" x2="920" y2="232.0" stroke="#eef2f0"/>
<text x="62" y="236.0" text-anchor="end" font-size="11" fill="#8a948f">59</text>
<line x1="70" y1="166.0" x2="920" y2="166.0" stroke="#eef2f0"/>
<text x="62" y="170.0" text-anchor="end" font-size="11" fill="#8a948f">63</text>
<line x1="70" y1="100.0" x2="920" y2="100.0" stroke="#eef2f0"/>
<text x="62" y="104.0" text-anchor="end" font-size="11" fill="#8a948f">67</text>
<text x="70.0" y="448.0" text-anchor="middle" font-size="11" fill="#8a948f">0</text>
<text x="211.7" y="448.0" text-anchor="middle" font-size="11" fill="#8a948f">2</text>
<text x="353.3" y="448.0" text-anchor="middle" font-size="11" fill="#8a948f">3</text>
<text x="495.0" y="448.0" text-anchor="middle" font-size="11" fill="#8a948f">5</text>
<text x="636.7" y="448.0" text-anchor="middle" font-size="11" fill="#8a948f">7</text>
<text x="778.3" y="448.0" text-anchor="middle" font-size="11" fill="#8a948f">8</text>
<text x="920.0" y="448.0" text-anchor="middle" font-size="11" fill="#8a948f">10</text>
<text x="495" y="468" text-anchor="middle" font-size="12" fill="#56635f">minutes into run</text>
<line x1="70" y1="161.2" x2="920" y2="161.2" stroke="#c9882f" stroke-width="1.3" stroke-dasharray="5 4"/>
<text x="916" y="156.2" text-anchor="end" font-size="11" fill="#a96f1f">upper threshold 63 °C</text>
<polyline points="70.1,389.8 72.9,344.7 75.8,301.2 78.7,309.3 81.6,291.6 84.4,301.2 87.3,283.5 90.2,291.6 93.1,283.5 95.9,265.8 99.0,273.9 101.8,273.9 104.7,265.8 107.6,265.8 110.5,265.8 113.3,256.1 116.2,248.1 119.1,248.1 122.0,238.4 124.8,238.4 127.7,238.4 130.6,230.4 133.5,248.1 136.3,230.4 139.2,230.4 142.1,230.4 144.9,220.7 147.8,238.4 150.7,220.7 153.5,203.0 156.4,212.7 159.3,212.7 162.2,212.7 165.0,203.0 167.9,203.0 170.8,203.0 173.7,203.0 176.6,203.0 179.4,203.0 182.3,203.0 185.2,203.0 188.1,220.7 190.9,195.0 193.8,212.7 196.7,195.0 199.5,203.0 202.4,195.0 205.3,212.7 208.2,203.0 211.0,195.0 213.9,203.0 216.8,230.4 219.6,203.0 222.5,203.0 225.4,212.7 228.2,230.4 231.1,203.0 234.0,195.0 236.9,195.0 239.8,195.0 242.6,203.0 245.5,203.0 248.3,185.3 251.2,203.0 254.1,195.0 257.0,195.0 259.8,203.0 262.7,203.0 265.6,203.0 268.5,203.0 271.3,195.0 274.2,212.7 277.1,195.0 280.0,203.0 282.8,212.7 285.7,195.0 288.6,203.0 291.4,203.0 294.3,212.7 297.2,195.0 300.1,185.3 302.9,185.3 305.8,203.0 308.7,203.0 311.5,185.3 314.4,195.0 317.3,212.7 320.1,203.0 323.0,203.0 325.9,203.0 328.8,212.7 331.6,195.0 334.7,203.0 337.5,203.0 340.4,195.0 343.3,195.0 346.1,185.3 349.0,195.0 351.9,195.0 354.8,212.7 357.6,195.0 360.5,203.0 363.4,203.0 366.3,185.3 369.1,195.0 372.0,195.0 374.9,185.3 377.7,177.3 380.6,177.3 383.5,195.0 386.4,185.3 389.2,195.0 392.1,185.3 395.0,195.0 397.8,185.3 400.7,185.3 403.6,212.7 406.5,195.0 409.5,203.0 412.3,185.3 415.2,195.0 418.1,195.0 421.0,185.3 423.8,185.3 426.7,185.3 429.6,195.0 432.4,195.0 435.3,195.0 438.2,185.3 441.1,185.3 443.9,195.0 446.8,185.3 449.7,195.0 452.5,185.3 455.4,195.0 458.3,185.3 461.2,185.3 464.0,167.6 466.9,195.0 469.8,195.0 472.6,195.0 475.5,185.3 478.4,185.3 481.3,185.3 484.1,185.3 487.0,185.3 489.9,185.3 492.7,185.3 495.6,185.3 498.5,185.3 501.4,195.0 504.2,185.3 507.1,185.3 510.0,195.0 512.8,195.0 515.7,185.3 518.6,177.3 521.5,185.3 524.3,177.3 527.2,185.3 530.1,195.0 533.0,185.3 535.8,185.3 538.7,195.0 541.6,177.3 544.4,177.3 547.3,185.3 550.2,185.3 553.1,185.3 555.9,185.3 558.8,195.0 561.7,167.6 564.5,177.3 567.4,185.3 570.3,195.0 573.2,203.0 576.0,185.3 578.9,167.6 581.8,177.3 584.7,185.3 587.5,185.3 590.4,185.3 593.3,177.3 596.1,185.3 599.0,177.3 601.9,185.3 604.9,167.6 607.8,185.3 610.6,195.0 613.5,185.3 616.4,185.3 619.2,167.6 622.1,177.3 625.0,185.3 627.8,185.3 630.7,195.0 633.6,177.3 636.6,177.3 639.5,177.3 642.3,177.3 645.2,185.3 648.1,177.3 650.9,185.3 653.8,195.0 656.7,185.3 659.6,177.3 662.4,177.3 665.3,167.6 668.2,177.3 671.0,195.0 673.9,185.3 676.8,177.3 679.7,177.3 682.5,167.6 685.4,167.6 688.3,177.3 691.1,177.3 694.0,177.3 696.9,177.3 699.8,167.6 702.6,167.6 705.5,185.3 708.4,185.3 711.3,177.3 714.1,177.3 717.0,167.6 719.9,167.6 722.7,159.6 725.6,177.3 728.5,185.3 731.4,167.6 734.2,177.3 737.1,177.3 740.0,177.3 742.8,177.3 745.7,195.0 748.6,185.3 751.5,167.6 754.3,167.6 757.2,177.3 760.1,177.3 763.0,177.3 765.8,159.6 768.7,167.6 771.6,185.3 774.4,185.3 777.3,167.6 780.2,167.6 783.0,177.3 785.9,167.6 788.8,177.3 791.6,177.3 794.5,177.3 797.4,167.6 800.3,167.6 803.1,177.3 806.0,167.6 808.9,177.3 811.7,167.6 814.6,149.9 817.5,159.6 820.3,149.9 823.2,159.6 826.1,132.2 828.9,159.6 831.8,149.9 834.7,159.6 837.5,159.6 840.4,159.6 843.3,149.9 846.1,159.6 849.0,141.9 851.9,149.9 854.8,159.6 857.6,220.7 860.5,167.6 863.4,230.4 866.2,167.6 869.1,230.4 872.0,177.3 874.8,238.4 877.7,177.3 880.6,212.7 883.4,195.0 886.3,212.7 889.2,195.0 892.0,220.7 894.9,177.3 897.8,230.4 900.6,195.0 903.5,212.7 906.4,177.3 909.3,220.7 912.1,203.0 915.0,220.7 917.9,185.3" fill="none" stroke="#3f72d4" stroke-width="2.2"/>
<line x1="722.8" y1="161.2" x2="722.8" y2="430" stroke="#3f72d4" stroke-width="1" stroke-dasharray="3 3" opacity="0.5"/>
<polyline points="70.0,397.8 72.9,327.0 75.8,318.9 78.7,301.2 81.5,291.6 84.4,283.5 87.2,273.9 90.1,283.5 93.0,283.5 95.8,265.8 98.7,265.8 101.6,256.1 104.5,265.8 107.3,248.1 110.2,248.1 113.1,248.1 116.0,256.1 118.8,248.1 121.7,248.1 124.6,248.1 127.5,230.4 130.3,230.4 133.2,230.4 136.1,212.7 138.9,248.1 141.8,238.4 144.8,230.4 147.7,212.7 150.6,203.0 153.4,212.7 156.3,203.0 159.2,195.0 162.1,203.0 164.9,256.1 167.8,220.7 170.6,212.7 173.5,220.7 176.4,203.0 179.3,212.7 182.1,212.7 185.0,220.7 187.9,212.7 190.7,195.0 193.6,203.0 196.5,212.7 199.3,265.8 202.2,212.7 205.0,283.5 207.9,230.4 210.8,212.7 213.7,220.7 216.5,203.0 219.4,220.7 222.3,203.0 225.2,203.0 228.0,256.1 230.9,212.7 233.7,273.9 236.6,203.0 239.5,291.6 242.3,230.4 245.2,220.7 248.1,212.7 250.9,203.0 253.8,212.7 256.7,203.0 259.6,230.4 262.5,212.7 265.3,203.0 268.2,256.1 271.0,195.0 273.9,283.5 276.8,203.0 279.6,283.5 282.5,220.7 285.4,283.5 288.2,220.7 291.1,273.9 294.0,220.7 296.8,238.4 299.7,212.7 302.6,220.7 305.4,212.7 308.3,220.7 311.2,212.7 314.1,212.7 317.0,203.0 319.8,203.0 322.7,212.7 325.6,212.7 328.5,212.7 331.3,185.3 334.2,203.0 337.1,203.0 340.0,185.3 342.8,203.0 345.7,185.3 348.6,212.7 351.4,212.7 354.3,220.7 357.2,195.0 360.0,212.7 362.9,195.0 365.8,203.0 368.7,212.7 371.5,212.7 374.4,203.0 377.3,195.0 380.1,185.3 383.0,195.0 385.9,256.1 388.7,212.7 391.6,203.0 394.5,212.7 397.5,195.0 400.4,203.0 403.3,212.7 406.1,203.0 409.0,195.0 411.9,203.0 414.7,238.4 417.6,195.0 420.5,265.8 423.3,185.3 426.2,265.8 429.1,220.7 432.0,212.7 434.8,212.7 437.7,185.3 440.6,195.0 443.5,203.0 446.3,195.0 449.3,265.8 452.2,195.0 455.1,273.9 457.9,212.7 460.8,283.5 463.7,220.7 466.5,212.7 469.4,212.7 472.3,195.0 475.1,195.0 478.0,203.0 480.9,185.3 483.7,248.1 486.6,195.0 489.5,265.8 492.3,212.7 495.2,248.1 498.1,203.0 500.9,248.1 503.8,220.7 506.7,212.7 509.5,212.7 512.4,212.7 515.3,203.0 518.1,203.0 521.0,185.3 523.9,220.7 526.8,203.0 529.6,212.7 532.5,212.7 535.4,230.4 538.2,212.7 541.1,230.4 544.0,212.7 546.8,203.0 549.7,212.7 552.6,203.0 555.5,195.0 558.3,195.0 561.2,195.0 564.1,203.0 566.9,248.1 569.8,230.4 572.7,203.0 575.6,203.0 578.4,203.0 581.3,185.3 584.2,212.7 587.0,203.0 589.9,203.0 592.8,203.0 595.6,195.0 598.5,203.0 601.4,248.1 604.2,203.0 607.2,256.1 610.1,220.7 613.0,220.7 615.8,220.7 618.7,212.7 621.6,203.0 624.4,195.0 627.3,185.3 630.2,248.1 633.0,195.0 635.9,265.8 638.8,220.7 641.6,203.0 644.5,230.4 647.4,203.0 650.3,185.3 653.1,212.7 656.0,203.0 658.9,248.1 661.7,195.0 664.6,273.9 667.5,203.0 670.3,273.9 673.2,195.0 676.0,273.9 678.9,212.7 681.7,283.5 684.6,220.7 687.5,220.7 690.4,212.7 693.2,212.7 696.1,212.7 699.0,195.0 701.9,195.0 704.7,203.0 707.6,212.7 710.5,203.0 713.3,195.0 716.2,203.0 719.1,203.0 721.9,203.0 724.8,212.7 727.7,195.0 730.6,203.0 733.4,195.0 736.3,212.7 739.2,195.0 742.0,230.4 744.9,195.0 747.8,185.3 750.7,195.0 753.5,185.3 756.4,185.3 759.3,185.3 762.1,195.0 765.0,195.0 767.9,220.7 770.7,212.7 773.6,212.7 776.5,185.3 779.3,203.0 782.2,185.3 785.1,177.3 787.9,203.0 790.8,185.3 793.7,185.3 796.5,195.0 799.5,248.1 802.4,203.0 805.3,265.8 808.1,212.7 811.0,203.0 813.9,195.0 816.7,195.0 819.6,203.0 822.5,203.0 825.3,195.0 828.2,230.4 831.1,185.3 833.9,283.5 836.8,220.7 839.7,212.7 842.5,212.7 845.4,203.0 848.3,195.0 851.2,195.0 854.0,177.3 856.9,248.1 859.7,195.0 862.6,256.1 865.5,195.0 868.3,265.8 871.2,220.7 874.1,273.9 876.9,212.7 879.8,212.7 882.7,203.0 885.6,203.0 888.4,203.0 891.3,256.1 894.2,195.0 897.0,256.1 899.9,195.0 902.8,283.5 905.6,212.7 908.5,273.9 911.4,220.7 914.2,203.0 917.1,212.7 920.0,212.7" fill="none" stroke="#d9822b" stroke-width="2.2"/>
<rect x="70" y="482" width="16" height="4" fill="#3f72d4"/>
<text x="92" y="489" font-size="12.5" fill="#45524f">reactive</text>
<rect x="194" y="482" width="16" height="4" fill="#d9822b"/>
<text x="216" y="489" font-size="12.5" fill="#45524f">bounded</text>
</svg>