<svg xmlns="http://www.w3.org/2000/svg" width="1120" height="585" viewBox="0 0 1120 585" font-family="Arial, Helvetica, sans-serif">
<rect width="1120" height="585" fill="#f6f8f8"/>
<text x="44" y="48" font-size="25" font-weight="700" fill="#16241f">N=3 open-loop look-ahead pilot on Raspberry Pi 5</text>
<text x="44" y="78" font-size="14" fill="#56635f">10 min runs, fan on, fixed scheduled demand: 4 sec arrival interval, 150 completed requests per run.</text>
<text x="44" y="105" font-size="13.5" fill="#28406e"><tspan font-weight="700">Pilot result:</tspan> bounded look-ahead stayed below 63 &#176;C in 3/3 runs; reactive exceeded 63 &#176;C in 3/3. Not a final claim.</text>
<rect x="44" y="134" width="506" height="352" rx="12" fill="#ffffff" stroke="#dde5e2"/>
<rect x="570" y="134" width="506" height="352" rx="12" fill="#ffffff" stroke="#dde5e2"/>
<text x="74" y="166" font-size="18" font-weight="700" fill="#16241f">Median peak temperature</text>
<text x="534" y="166" text-anchor="end" font-size="11" fill="#8a948f">zoomed axis: 56&#8211;66 &#176;C</text>
<text x="600" y="166" font-size="18" font-weight="700" fill="#16241f">Median seconds at or above 63 &#176;C</text>
<line x1="80" y1="446.0" x2="534" y2="446.0" stroke="#eef2f0"/>
<text x="70" y="450.0" text-anchor="end" font-size="11" fill="#7b8783">56</text>
<line x1="80" y1="395.6" x2="534" y2="395.6" stroke="#eef2f0"/>
<text x="70" y="399.6" text-anchor="end" font-size="11" fill="#7b8783">58</text>
<line x1="80" y1="345.2" x2="534" y2="345.2" stroke="#eef2f0"/>
<text x="70" y="349.2" text-anchor="end" font-size="11" fill="#7b8783">60</text>
<line x1="80" y1="294.8" x2="534" y2="294.8" stroke="#eef2f0"/>
<text x="70" y="298.8" text-anchor="end" font-size="11" fill="#7b8783">62</text>
<line x1="80" y1="244.4" x2="534" y2="244.4" stroke="#eef2f0"/>
<text x="70" y="248.4" text-anchor="end" font-size="11" fill="#7b8783">64</text>
<line x1="80" y1="194.0" x2="534" y2="194.0" stroke="#eef2f0"/>
<text x="70" y="198.0" text-anchor="end" font-size="11" fill="#7b8783">66</text>
<rect x="165" y="252.0" width="130" height="194.0" rx="6" fill="#9aa6b2"/>
<text x="230" y="240.0" text-anchor="middle" font-size="17" font-weight="700" fill="#16241f">63.7 &#176;C</text>
<rect x="315" y="294.8" width="130" height="151.2" rx="6" fill="#3f72d4"/>
<text x="380" y="282.8" text-anchor="middle" font-size="17" font-weight="700" fill="#16241f">62.0 &#176;C</text>
<text x="230" y="468" text-anchor="middle" font-size="14" font-weight="700" fill="#45524f">reactive</text>
<text x="380" y="468" text-anchor="middle" font-size="14" font-weight="700" fill="#45524f">bounded look-ahead</text>
<line x1="80" y1="269.6" x2="534" y2="269.6" stroke="#c9882f" stroke-width="1.5" stroke-dasharray="5 4"/>
<text x="530" y="263.6" text-anchor="end" font-size="12" fill="#a96f1f">63 &#176;C threshold</text>
<line x1="606" y1="446.0" x2="1060" y2="446.0" stroke="#eef2f0"/>
<text x="596" y="450.0" text-anchor="end" font-size="11" fill="#7b8783">0</text>
<line x1="606" y1="362.0" x2="1060" y2="362.0" stroke="#eef2f0"/>
<text x="596" y="366.0" text-anchor="end" font-size="11" fill="#7b8783">100</text>
<line x1="606" y1="278.0" x2="1060" y2="278.0" stroke="#eef2f0"/>
<text x="596" y="282.0" text-anchor="end" font-size="11" fill="#7b8783">200</text>
<line x1="606" y1="194.0" x2="1060" y2="194.0" stroke="#eef2f0"/>
<text x="596" y="198.0" text-anchor="end" font-size="11" fill="#7b8783">300</text>
<rect x="635" y="272.0" width="130" height="174.0" rx="6" fill="#9aa6b2"/>
<text x="700" y="260.0" text-anchor="middle" font-size="17" font-weight="700" fill="#16241f">207.1s</text>
<rect x="835" y="446.0" width="130" height="1.0" rx="6" fill="#3f72d4"/>
<text x="900" y="434.0" text-anchor="middle" font-size="17" font-weight="700" fill="#16241f">0.0s</text>
<text x="700" y="468" text-anchor="middle" font-size="14" font-weight="700" fill="#45524f">reactive</text>
<text x="900" y="468" text-anchor="middle" font-size="14" font-weight="700" fill="#45524f">bounded look-ahead</text>
<rect x="44" y="506" width="150" height="32" rx="16" fill="#eef2f0"/>
<text x="119" y="527" text-anchor="middle" font-size="14" fill="#3d4a46">3 pairs &#215; 10 min</text>
<rect x="208" y="506" width="190" height="32" rx="16" fill="#eef2f0"/>
<text x="303" y="527" text-anchor="middle" font-size="14" fill="#3d4a46">150 requests each run</text>
<rect x="412" y="506" width="130" height="32" rx="16" fill="#eef2f0"/>
<text x="477" y="527" text-anchor="middle" font-size="14" fill="#3d4a46">0 throttling</text>
<rect x="556" y="506" width="360" height="32" rx="16" fill="#fff3df"/>
<text x="736" y="527" text-anchor="middle" font-size="14" fill="#7c530e">bounded switches often: median 18 Q4 switches</text>
<text x="44" y="562" font-size="11.5" fill="#7c8783">Values are medians across N=3 pilot pairs. Output quality and long-run stability were not evaluated.</text>
</svg>