<svg xmlns="http://www.w3.org/2000/svg" width="960" height="520" viewBox="0 0 960 520" role="img" aria-labelledby="t d">
  <title id="t">Throughput over time: fixed Q8 vs fixed Q4 vs controller</title>
  <desc id="d">Per-request throughput (median per 30 s) over one 30-minute run on Raspberry Pi 5. Fixed Q8 stays near 6.5 tokens per second. Fixed Q4 stays near 11.3. The controller starts on Q8, switches to Q4 at the 63 C threshold around 7 minutes, and rises from about 6.5 to about 11 tokens per second.</desc>
  <rect width="960" height="520" fill="#f6f8f8"/>
  <text x="40" y="44" font-family="Arial, Helvetica, sans-serif" font-size="25" font-weight="700" fill="#16241f">At the thermal switch, the controller climbs to the Q4 line</text>
  <text x="40" y="72" font-family="Arial, Helvetica, sans-serif" font-size="14.5" fill="#56635f">Per-request throughput over one 30-minute run &#183; Raspberry Pi 5, fan on.</text>
  <rect x="70" y="110" width="850" height="320" fill="#ffffff" stroke="#e3e9e7"/>
  <line x1="70" y1="430.0" x2="920" y2="430.0" stroke="#eef2f0"/><text x="62" y="434.0" text-anchor="end" font-family="Arial, Helvetica, sans-serif" font-size="11.5" fill="#8a948f">0</text><line x1="70" y1="338.6" x2="920" y2="338.6" stroke="#eef2f0"/><text x="62" y="342.6" text-anchor="end" font-family="Arial, Helvetica, sans-serif" font-size="11.5" fill="#8a948f">4</text><line x1="70" y1="247.1" x2="920" y2="247.1" stroke="#eef2f0"/><text x="62" y="251.1" text-anchor="end" font-family="Arial, Helvetica, sans-serif" font-size="11.5" fill="#8a948f">8</text><line x1="70" y1="155.7" x2="920" y2="155.7" stroke="#eef2f0"/><text x="62" y="159.7" text-anchor="end" font-family="Arial, Helvetica, sans-serif" font-size="11.5" fill="#8a948f">12</text><text x="70.0" y="448" text-anchor="middle" font-family="Arial, Helvetica, sans-serif" font-size="11.5" fill="#8a948f">0</text><text x="211.7" y="448" text-anchor="middle" font-family="Arial, Helvetica, sans-serif" font-size="11.5" fill="#8a948f">5</text><text x="353.3" y="448" text-anchor="middle" font-family="Arial, Helvetica, sans-serif" font-size="11.5" fill="#8a948f">10</text><text x="495.0" y="448" text-anchor="middle" font-family="Arial, Helvetica, sans-serif" font-size="11.5" fill="#8a948f">15</text><text x="636.7" y="448" text-anchor="middle" font-family="Arial, Helvetica, sans-serif" font-size="11.5" fill="#8a948f">20</text><text x="778.3" y="448" text-anchor="middle" font-family="Arial, Helvetica, sans-serif" font-size="11.5" fill="#8a948f">25</text><text x="920.0" y="448" text-anchor="middle" font-family="Arial, Helvetica, sans-serif" font-size="11.5" fill="#8a948f">30</text>
  <text x="495" y="468" text-anchor="middle" font-family="Arial, Helvetica, sans-serif" font-size="12.5" fill="#56635f">minutes into run</text>
  <text x="22" y="270" text-anchor="middle" transform="rotate(-90 22 270)" font-family="Arial, Helvetica, sans-serif" font-size="12.5" fill="#56635f">throughput (tokens / sec)</text>
  <line x1="269.0" y1="110" x2="269.0" y2="430" stroke="#16241f" stroke-width="1" stroke-dasharray="3 3" opacity="0.45"/>
  <text x="275.0" y="150" font-family="Arial, Helvetica, sans-serif" font-size="11.5" fill="#45524f">63 &#176;C &#8594; Q4</text>
  <polyline points="77.1,162.1 91.2,162.0 105.4,162.0 119.6,162.0 133.8,161.9 147.9,162.0 162.1,162.1 176.2,162.0 190.4,162.0 204.6,165.6 218.8,170.4 232.9,170.3 247.1,163.3 261.2,162.0 275.4,162.0 289.6,162.1 303.8,162.1 317.9,162.2 332.1,167.8 346.2,170.4 360.4,170.5 374.6,170.3 388.8,170.3 402.9,170.3 417.1,170.3 431.2,170.2 445.4,170.2 459.6,170.3 473.8,170.3 487.9,170.4 502.1,170.2 516.2,170.3 530.4,170.3 544.6,170.3 558.8,170.3 572.9,170.3 587.1,170.3 601.2,170.4 615.4,170.4 629.6,170.3 643.8,170.4 657.9,170.3 672.1,170.2 686.2,170.3 700.4,170.4 714.6,170.3 728.8,170.2 742.9,170.0 757.1,162.1 771.2,165.4 785.4,170.2 799.6,170.2 813.8,170.3 827.9,170.3 842.1,170.3 856.2,170.4 870.4,170.3 884.6,170.3 898.8,170.2 912.9,162.2" fill="none" stroke="#1f9d76" stroke-width="2.4"/>
  <polyline points="77.1,281.2 91.2,281.1 105.4,281.2 119.6,281.1 133.8,281.1 147.9,281.1 162.1,281.1 176.2,281.0 190.4,281.0 204.6,281.1 218.8,281.1 232.9,281.1 247.1,281.1 261.2,281.1 275.4,281.0 289.6,281.1 303.8,281.1 317.9,281.1 332.1,281.0 346.2,281.1 360.4,281.0 374.6,281.2 388.8,281.1 402.9,281.1 417.1,281.1 431.2,281.1 445.4,281.1 459.6,281.1 473.8,281.1 487.9,281.1 502.1,281.1 516.2,281.2 530.4,281.2 544.6,281.2 558.8,281.2 572.9,281.1 587.1,281.2 601.2,281.1 615.4,281.3 629.6,281.2 643.8,281.1 657.9,281.1 672.1,281.1 686.2,281.2 700.4,281.2 714.6,281.2 728.8,281.2 742.9,281.2 757.1,281.3 771.2,281.3 785.4,281.2 799.6,281.2 813.8,281.3 827.9,281.2 842.1,281.1 856.2,281.2 870.4,281.2 884.6,281.2 898.8,281.2 912.9,281.1" fill="none" stroke="#9aa6b2" stroke-width="2.4"/>
  <polyline points="77.1,281.4 91.2,281.2 105.4,281.4 119.6,281.2 133.8,281.0 147.9,281.1 162.1,281.0 176.2,280.9 190.4,281.0 204.6,281.2 218.8,281.3 232.9,281.4 247.1,281.3 261.2,281.3 275.4,162.9 289.6,162.7 303.8,162.5 317.9,161.8 332.1,162.1 346.2,163.8 360.4,169.2 374.6,169.4 388.8,169.5 402.9,169.5 417.1,169.5 431.2,169.5 445.4,169.5 459.6,169.5 473.8,169.6 487.9,169.6 502.1,169.5 516.2,169.5 530.4,169.6 544.6,169.4 558.8,169.6 572.9,169.5 587.1,169.5 601.2,169.6 615.4,169.6 629.6,169.5 643.8,169.5 657.9,169.5 672.1,169.5 686.2,169.4 700.4,169.5 714.6,169.4 728.8,169.2 742.9,169.4 757.1,169.2 771.2,169.1 785.4,169.2 799.6,169.2 813.8,168.9 827.9,168.6 842.1,168.7 856.2,168.8 870.4,169.3 884.6,169.6 898.8,169.6 912.9,169.7" fill="none" stroke="#3f72d4" stroke-width="2.8"/>
  <g font-family="Arial, Helvetica, sans-serif" font-size="12.5" fill="#45524f">
    <line x1="70" y1="490" x2="98" y2="490" stroke="#1f9d76" stroke-width="3"/><text x="104" y="494">fixed Q4 (best baseline)</text>
    <line x1="280" y1="490" x2="308" y2="490" stroke="#3f72d4" stroke-width="3"/><text x="314" y="494">controller</text>
    <line x1="430" y1="490" x2="458" y2="490" stroke="#9aa6b2" stroke-width="3"/><text x="464" y="494">fixed Q8</text>
  </g>
  <text x="40" y="512" font-family="Arial, Helvetica, sans-serif" font-size="11" fill="#7c8682">One run per mode (median per 30 s). Controller: ~6.5 tok/s on Q8, then ~11 on Q4 &#8212; matching fixed Q4, the best baseline. Fixed Q8 stays slow throughout.</text>
</svg>