<svg xmlns="http://www.w3.org/2000/svg" width="1360" height="860" viewBox="0 0 1360 860">
<style>
.bg{fill:#f7faf8}.title{font:700 31px -apple-system,BlinkMacSystemFont,Segoe UI,sans-serif;fill:#17221d}.sub{font:17px -apple-system,BlinkMacSystemFont,Segoe UI,sans-serif;fill:#5c6962}.small{font:14px -apple-system,BlinkMacSystemFont,Segoe UI,sans-serif;fill:#65716b}.axis{stroke:#cbd6d0;stroke-width:1.7}.grid{stroke:#e8efeb;stroke-width:1}.label{font:700 15px -apple-system,BlinkMacSystemFont,Segoe UI,sans-serif;fill:#20302a}.tick{font:13px -apple-system,BlinkMacSystemFont,Segoe UI,sans-serif;fill:#748079}.note{font:13px -apple-system,BlinkMacSystemFont,Segoe UI,sans-serif;fill:#68736d}.card{fill:#ffffff;stroke:#d8e1dc;stroke-width:1.2}.mono{font:13px ui-monospace,SFMono-Regular,Menlo,Consolas,monospace;fill:#4e5a54}.legend{font:700 14px -apple-system,BlinkMacSystemFont,Segoe UI,sans-serif;fill:#25352e}
</style>
<rect class="bg" width="1360" height="860"/>
<text x="48" y="50" class="title">Fan-off thermal stress: controller keeps serving</text>
<text x="48" y="82" class="sub">Representative real runs. Aggregate medians exclude airflow-affected controller_002 and use controller_002_rerun.</text>
<text x="48" y="107" class="sub">Raspberry Pi 5, active fan disconnected, airflow blocked, open-loop arrival every 6 s, 1200 s target window.</text>
<rect x="48" y="130" width="370" height="66" rx="13" fill="#fff0ed" stroke="#f0c6bf"/>
<circle cx="72" cy="160" r="7" fill="#d85a4a"/>
<text x="91" y="154" class="label">Q8 fixed: 3/3 throttled</text>
<text x="91" y="176" class="small">representative run: 100 requests, peak 81.2 C</text>
<rect x="478" y="130" width="370" height="66" rx="13" fill="#eaf2ff" stroke="#cad8f4"/>
<circle cx="502" cy="160" r="7" fill="#3f72d1"/>
<text x="521" y="154" class="label">Controller: 3/3 completed</text>
<text x="521" y="176" class="small">representative run: 200 requests, peak 77.9 C</text>
<rect x="908" y="130" width="370" height="66" rx="13" fill="#e7f6ef" stroke="#c6e6d9"/>
<circle cx="932" cy="160" r="7" fill="#20a37a"/>
<text x="951" y="154" class="label">Q4 fixed: 3/3 completed</text>
<text x="951" y="176" class="small">representative run: 200 requests, peak 79.0 C</text>
<rect x="94" y="232" width="1154" height="315" rx="10" fill="#fff" stroke="#d8e1dc"/>
<rect x="94" y="622" width="1154" height="130" rx="10" fill="#fff" stroke="#d8e1dc"/>
<rect x="94" y="232.0" width="1154" height="39.4" fill="#d85a4a" opacity="0.08"/>
<line x1="94" y1="251.7" x2="1248" y2="251.7" stroke="#a83228" stroke-width="1.5" stroke-dasharray="7 5"/>
<text x="903" y="245.7" class="small" fill="#a83228">safety stop 82 C</text>
<line x1="94" y1="271.4" x2="1248" y2="271.4" stroke="#d85a4a" stroke-width="1.5" stroke-dasharray="4 4"/>
<text x="903" y="265.4" class="small" fill="#d85a4a">Q8 sticky throttle observed here</text>
<line x1="94" y1="359.0" x2="1248" y2="359.0" stroke="#3f72d1" stroke-width="1.5" stroke-dasharray="7 5"/>
<text x="903" y="353.0" class="small" fill="#3f72d1">controller ceiling 71.1 C</text>
<rect x="276.9" y="530" width="2.0" height="8" fill="#3f72d1" opacity="0.22"/>
<rect x="279.0" y="530" width="1.9" height="8" fill="#3f72d1" opacity="0.22"/>
<rect x="280.9" y="530" width="2.0" height="8" fill="#3f72d1" opacity="0.22"/>
<rect x="283.0" y="530" width="1.9" height="8" fill="#3f72d1" opacity="0.22"/>
<rect x="284.8" y="530" width="0.1" height="8" fill="#3f72d1" opacity="0.22"/>
<rect x="284.9" y="530" width="1.9" height="8" fill="#3f72d1" opacity="0.22"/>
<rect x="286.9" y="530" width="1.9" height="8" fill="#3f72d1" opacity="0.22"/>
<rect x="310.2" y="530" width="1.9" height="8" fill="#3f72d1" opacity="0.22"/>
<rect x="312.2" y="530" width="1.9" height="8" fill="#3f72d1" opacity="0.22"/>
<rect x="314.1" y="530" width="1.9" height="8" fill="#3f72d1" opacity="0.22"/>
<rect x="316.0" y="530" width="1.9" height="8" fill="#3f72d1" opacity="0.22"/>
<rect x="318.0" y="530" width="2.0" height="8" fill="#3f72d1" opacity="0.22"/>
<rect x="319.9" y="530" width="1.9" height="8" fill="#3f72d1" opacity="0.22"/>
<rect x="321.9" y="530" width="1.9" height="8" fill="#3f72d1" opacity="0.22"/>
<rect x="333.5" y="530" width="1.9" height="8" fill="#3f72d1" opacity="0.22"/>
<rect x="335.5" y="530" width="1.9" height="8" fill="#3f72d1" opacity="0.22"/>
<rect x="337.4" y="530" width="1.9" height="8" fill="#3f72d1" opacity="0.22"/>
<rect x="339.3" y="530" width="1.9" height="8" fill="#3f72d1" opacity="0.22"/>
<rect x="341.3" y="530" width="2.0" height="8" fill="#3f72d1" opacity="0.22"/>
<rect x="343.2" y="530" width="1.9" height="8" fill="#3f72d1" opacity="0.22"/>
<rect x="345.2" y="530" width="1.9" height="8" fill="#3f72d1" opacity="0.22"/>
<rect x="356.9" y="530" width="1.9" height="8" fill="#3f72d1" opacity="0.22"/>
<rect x="358.8" y="530" width="1.9" height="8" fill="#3f72d1" opacity="0.22"/>
<rect x="360.7" y="530" width="1.9" height="8" fill="#3f72d1" opacity="0.22"/>
<rect x="362.7" y="530" width="1.9" height="8" fill="#3f72d1" opacity="0.22"/>
<rect x="364.6" y="530" width="2.0" height="8" fill="#3f72d1" opacity="0.22"/>
<rect x="366.6" y="530" width="1.9" height="8" fill="#3f72d1" opacity="0.22"/>
<rect x="368.5" y="530" width="1.9" height="8" fill="#3f72d1" opacity="0.22"/>
<rect x="380.2" y="530" width="1.9" height="8" fill="#3f72d1" opacity="0.22"/>
<rect x="382.1" y="530" width="1.9" height="8" fill="#3f72d1" opacity="0.22"/>
<rect x="384.1" y="530" width="1.9" height="8" fill="#3f72d1" opacity="0.22"/>
<rect x="386.0" y="530" width="1.9" height="8" fill="#3f72d1" opacity="0.22"/>
<rect x="388.0" y="530" width="1.9" height="8" fill="#3f72d1" opacity="0.22"/>
<rect x="389.9" y="530" width="1.9" height="8" fill="#3f72d1" opacity="0.22"/>
<rect x="391.8" y="530" width="1.9" height="8" fill="#3f72d1" opacity="0.22"/>
<rect x="393.8" y="530" width="1.9" height="8" fill="#3f72d1" opacity="0.22"/>
<rect x="395.7" y="530" width="1.9" height="8" fill="#3f72d1" opacity="0.22"/>
<rect x="397.7" y="530" width="1.9" height="8" fill="#3f72d1" opacity="0.22"/>
<rect x="409.3" y="530" width="1.9" height="8" fill="#3f72d1" opacity="0.22"/>
<rect x="411.3" y="530" width="1.9" height="8" fill="#3f72d1" opacity="0.22"/>
<rect x="413.2" y="530" width="1.9" height="8" fill="#3f72d1" opacity="0.22"/>
<rect x="415.2" y="530" width="1.9" height="8" fill="#3f72d1" opacity="0.22"/>
<rect x="417.1" y="530" width="2.0" height="8" fill="#3f72d1" opacity="0.22"/>
<rect x="419.1" y="530" width="1.9" height="8" fill="#3f72d1" opacity="0.22"/>
<rect x="421.0" y="530" width="1.9" height="8" fill="#3f72d1" opacity="0.22"/>
<rect x="422.9" y="530" width="1.9" height="8" fill="#3f72d1" opacity="0.22"/>
<rect x="424.9" y="530" width="1.9" height="8" fill="#3f72d1" opacity="0.22"/>
<rect x="426.8" y="530" width="1.9" height="8" fill="#3f72d1" opacity="0.22"/>
<rect x="438.5" y="530" width="2.0" height="8" fill="#3f72d1" opacity="0.22"/>
<rect x="440.4" y="530" width="1.9" height="8" fill="#3f72d1" opacity="0.22"/>
<rect x="442.4" y="530" width="1.9" height="8" fill="#3f72d1" opacity="0.22"/>
<rect x="444.3" y="530" width="1.9" height="8" fill="#3f72d1" opacity="0.22"/>
<rect x="446.3" y="530" width="1.9" height="8" fill="#3f72d1" opacity="0.22"/>
<rect x="448.2" y="530" width="1.9" height="8" fill="#3f72d1" opacity="0.22"/>
<rect x="450.2" y="530" width="1.9" height="8" fill="#3f72d1" opacity="0.22"/>
<rect x="452.1" y="530" width="1.9" height="8" fill="#3f72d1" opacity="0.22"/>
<rect x="454.0" y="530" width="1.9" height="8" fill="#3f72d1" opacity="0.22"/>
<rect x="456.0" y="530" width="1.9" height="8" fill="#3f72d1" opacity="0.22"/>
<rect x="457.9" y="530" width="1.9" height="8" fill="#3f72d1" opacity="0.22"/>
<rect x="459.9" y="530" width="1.9" height="8" fill="#3f72d1" opacity="0.22"/>
<rect x="461.8" y="530" width="2.0" height="8" fill="#3f72d1" opacity="0.22"/>
<rect x="463.7" y="530" width="1.9" height="8" fill="#3f72d1" opacity="0.22"/>
<rect x="465.7" y="530" width="1.9" height="8" fill="#3f72d1" opacity="0.22"/>
<rect x="467.6" y="530" width="1.9" height="8" fill="#3f72d1" opacity="0.22"/>
<rect x="469.6" y="530" width="2.0" height="8" fill="#3f72d1" opacity="0.22"/>
<rect x="471.5" y="530" width="1.9" height="8" fill="#3f72d1" opacity="0.22"/>
<rect x="473.5" y="530" width="1.9" height="8" fill="#3f72d1" opacity="0.22"/>
<rect x="475.4" y="530" width="2.0" height="8" fill="#3f72d1" opacity="0.22"/>
<rect x="477.4" y="530" width="1.9" height="8" fill="#3f72d1" opacity="0.22"/>
<rect x="479.3" y="530" width="2.0" height="8" fill="#3f72d1" opacity="0.22"/>
<rect x="481.3" y="530" width="1.9" height="8" fill="#3f72d1" opacity="0.22"/>
<rect x="483.2" y="530" width="1.9" height="8" fill="#3f72d1" opacity="0.22"/>
<rect x="485.1" y="530" width="1.9" height="8" fill="#3f72d1" opacity="0.22"/>
<rect x="487.1" y="530" width="1.9" height="8" fill="#3f72d1" opacity="0.22"/>
<rect x="489.0" y="530" width="1.9" height="8" fill="#3f72d1" opacity="0.22"/>
<rect x="491.0" y="530" width="1.9" height="8" fill="#3f72d1" opacity="0.22"/>
<rect x="492.9" y="530" width="1.9" height="8" fill="#3f72d1" opacity="0.22"/>
<rect x="494.8" y="530" width="1.9" height="8" fill="#3f72d1" opacity="0.22"/>
<rect x="496.8" y="530" width="2.0" height="8" fill="#3f72d1" opacity="0.22"/>
<rect x="498.7" y="530" width="1.9" height="8" fill="#3f72d1" opacity="0.22"/>
<rect x="500.7" y="530" width="1.9" height="8" fill="#3f72d1" opacity="0.22"/>
<rect x="502.6" y="530" width="2.0" height="8" fill="#3f72d1" opacity="0.22"/>
<rect x="504.6" y="530" width="2.0" height="8" fill="#3f72d1" opacity="0.22"/>
<rect x="506.6" y="530" width="1.9" height="8" fill="#3f72d1" opacity="0.22"/>
<rect x="508.5" y="530" width="2.0" height="8" fill="#3f72d1" opacity="0.22"/>
<rect x="510.5" y="530" width="1.9" height="8" fill="#3f72d1" opacity="0.22"/>
<rect x="512.4" y="530" width="1.9" height="8" fill="#3f72d1" opacity="0.22"/>
<rect x="514.3" y="530" width="2.0" height="8" fill="#3f72d1" opacity="0.22"/>
<rect x="516.3" y="530" width="1.9" height="8" fill="#3f72d1" opacity="0.22"/>
<rect x="518.2" y="530" width="1.9" height="8" fill="#3f72d1" opacity="0.22"/>
<rect x="520.2" y="530" width="1.9" height="8" fill="#3f72d1" opacity="0.22"/>
<rect x="522.1" y="530" width="1.9" height="8" fill="#3f72d1" opacity="0.22"/>
<rect x="524.0" y="530" width="1.9" height="8" fill="#3f72d1" opacity="0.22"/>
<rect x="526.0" y="530" width="1.9" height="8" fill="#3f72d1" opacity="0.22"/>
<rect x="527.9" y="530" width="1.9" height="8" fill="#3f72d1" opacity="0.22"/>
<rect x="529.9" y="530" width="1.9" height="8" fill="#3f72d1" opacity="0.22"/>
<rect x="531.8" y="530" width="2.0" height="8" fill="#3f72d1" opacity="0.22"/>
<rect x="533.8" y="530" width="1.9" height="8" fill="#3f72d1" opacity="0.22"/>
<rect x="535.7" y="530" width="1.9" height="8" fill="#3f72d1" opacity="0.22"/>
<rect x="537.6" y="530" width="2.0" height="8" fill="#3f72d1" opacity="0.22"/>
<rect x="539.6" y="530" width="1.9" height="8" fill="#3f72d1" opacity="0.22"/>
<rect x="541.5" y="530" width="1.9" height="8" fill="#3f72d1" opacity="0.22"/>
<rect x="543.5" y="530" width="1.9" height="8" fill="#3f72d1" opacity="0.22"/>
<rect x="545.4" y="530" width="1.9" height="8" fill="#3f72d1" opacity="0.22"/>
<rect x="547.4" y="530" width="1.9" height="8" fill="#3f72d1" opacity="0.22"/>
<rect x="549.3" y="530" width="1.9" height="8" fill="#3f72d1" opacity="0.22"/>
<rect x="551.2" y="530" width="1.9" height="8" fill="#3f72d1" opacity="0.22"/>
<rect x="553.2" y="530" width="1.9" height="8" fill="#3f72d1" opacity="0.22"/>
<rect x="555.1" y="530" width="1.9" height="8" fill="#3f72d1" opacity="0.22"/>
<rect x="557.1" y="530" width="1.9" height="8" fill="#3f72d1" opacity="0.22"/>
<rect x="559.0" y="530" width="1.9" height="8" fill="#3f72d1" opacity="0.22"/>
<rect x="560.9" y="530" width="1.9" height="8" fill="#3f72d1" opacity="0.22"/>
<rect x="562.9" y="530" width="1.9" height="8" fill="#3f72d1" opacity="0.22"/>
<rect x="564.8" y="530" width="1.9" height="8" fill="#3f72d1" opacity="0.22"/>
<rect x="566.8" y="530" width="1.9" height="8" fill="#3f72d1" opacity="0.22"/>
<rect x="568.7" y="530" width="1.9" height="8" fill="#3f72d1" opacity="0.22"/>
<rect x="570.6" y="530" width="2.0" height="8" fill="#3f72d1" opacity="0.22"/>
<rect x="572.7" y="530" width="2.0" height="8" fill="#3f72d1" opacity="0.22"/>
<rect x="574.6" y="530" width="1.9" height="8" fill="#3f72d1" opacity="0.22"/>
<rect x="576.6" y="530" width="1.9" height="8" fill="#3f72d1" opacity="0.22"/>
<rect x="578.5" y="530" width="2.0" height="8" fill="#3f72d1" opacity="0.22"/>
<rect x="580.5" y="530" width="1.9" height="8" fill="#3f72d1" opacity="0.22"/>
<rect x="582.4" y="530" width="1.9" height="8" fill="#3f72d1" opacity="0.22"/>
<rect x="584.3" y="530" width="1.9" height="8" fill="#3f72d1" opacity="0.22"/>
<rect x="586.3" y="530" width="1.9" height="8" fill="#3f72d1" opacity="0.22"/>
<rect x="588.2" y="530" width="1.9" height="8" fill="#3f72d1" opacity="0.22"/>
<rect x="590.2" y="530" width="1.9" height="8" fill="#3f72d1" opacity="0.22"/>
<rect x="592.1" y="530" width="1.9" height="8" fill="#3f72d1" opacity="0.22"/>
<rect x="594.1" y="530" width="1.9" height="8" fill="#3f72d1" opacity="0.22"/>
<rect x="596.0" y="530" width="2.0" height="8" fill="#3f72d1" opacity="0.22"/>
<rect x="597.9" y="530" width="1.9" height="8" fill="#3f72d1" opacity="0.22"/>
<rect x="599.9" y="530" width="1.9" height="8" fill="#3f72d1" opacity="0.22"/>
<rect x="601.8" y="530" width="2.0" height="8" fill="#3f72d1" opacity="0.22"/>
<rect x="603.8" y="530" width="1.9" height="8" fill="#3f72d1" opacity="0.22"/>
<rect x="605.7" y="530" width="2.0" height="8" fill="#3f72d1" opacity="0.22"/>
<rect x="607.7" y="530" width="2.0" height="8" fill="#3f72d1" opacity="0.22"/>
<rect x="609.6" y="530" width="1.9" height="8" fill="#3f72d1" opacity="0.22"/>
<rect x="611.6" y="530" width="1.9" height="8" fill="#3f72d1" opacity="0.22"/>
<rect x="613.5" y="530" width="2.0" height="8" fill="#3f72d1" opacity="0.22"/>
<rect x="615.5" y="530" width="1.9" height="8" fill="#3f72d1" opacity="0.22"/>
<rect x="617.4" y="530" width="1.9" height="8" fill="#3f72d1" opacity="0.22"/>
<rect x="619.3" y="530" width="2.0" height="8" fill="#3f72d1" opacity="0.22"/>
<rect x="621.3" y="530" width="1.9" height="8" fill="#3f72d1" opacity="0.22"/>
<rect x="623.2" y="530" width="1.9" height="8" fill="#3f72d1" opacity="0.22"/>
<rect x="625.2" y="530" width="2.0" height="8" fill="#3f72d1" opacity="0.22"/>
<rect x="627.1" y="530" width="1.9" height="8" fill="#3f72d1" opacity="0.22"/>
<rect x="629.1" y="530" width="2.0" height="8" fill="#3f72d1" opacity="0.22"/>
<rect x="631.0" y="530" width="1.9" height="8" fill="#3f72d1" opacity="0.22"/>
<rect x="633.0" y="530" width="1.9" height="8" fill="#3f72d1" opacity="0.22"/>
<rect x="634.9" y="530" width="1.9" height="8" fill="#3f72d1" opacity="0.22"/>
<rect x="636.8" y="530" width="1.9" height="8" fill="#3f72d1" opacity="0.22"/>
<rect x="638.8" y="530" width="1.9" height="8" fill="#3f72d1" opacity="0.22"/>
<rect x="640.7" y="530" width="1.9" height="8" fill="#3f72d1" opacity="0.22"/>
<rect x="642.7" y="530" width="2.0" height="8" fill="#3f72d1" opacity="0.22"/>
<rect x="644.6" y="530" width="1.9" height="8" fill="#3f72d1" opacity="0.22"/>
<rect x="646.6" y="530" width="2.0" height="8" fill="#3f72d1" opacity="0.22"/>
<rect x="648.5" y="530" width="1.9" height="8" fill="#3f72d1" opacity="0.22"/>
<rect x="650.5" y="530" width="1.9" height="8" fill="#3f72d1" opacity="0.22"/>
<rect x="652.4" y="530" width="1.9" height="8" fill="#3f72d1" opacity="0.22"/>
<rect x="654.3" y="530" width="1.9" height="8" fill="#3f72d1" opacity="0.22"/>
<rect x="656.3" y="530" width="1.9" height="8" fill="#3f72d1" opacity="0.22"/>
<rect x="658.2" y="530" width="2.0" height="8" fill="#3f72d1" opacity="0.22"/>
<rect x="660.2" y="530" width="1.9" height="8" fill="#3f72d1" opacity="0.22"/>
<rect x="662.1" y="530" width="1.9" height="8" fill="#3f72d1" opacity="0.22"/>
<rect x="664.1" y="530" width="1.9" height="8" fill="#3f72d1" opacity="0.22"/>
<rect x="666.0" y="530" width="1.9" height="8" fill="#3f72d1" opacity="0.22"/>
<rect x="667.9" y="530" width="1.9" height="8" fill="#3f72d1" opacity="0.22"/>
<rect x="669.9" y="530" width="2.0" height="8" fill="#3f72d1" opacity="0.22"/>
<rect x="671.8" y="530" width="1.9" height="8" fill="#3f72d1" opacity="0.22"/>
<rect x="673.8" y="530" width="1.9" height="8" fill="#3f72d1" opacity="0.22"/>
<rect x="675.7" y="530" width="1.9" height="8" fill="#3f72d1" opacity="0.22"/>
<rect x="677.6" y="530" width="1.9" height="8" fill="#3f72d1" opacity="0.22"/>
<rect x="679.6" y="530" width="1.9" height="8" fill="#3f72d1" opacity="0.22"/>
<rect x="681.5" y="530" width="1.9" height="8" fill="#3f72d1" opacity="0.22"/>
<rect x="683.5" y="530" width="1.9" height="8" fill="#3f72d1" opacity="0.22"/>
<rect x="685.4" y="530" width="1.9" height="8" fill="#3f72d1" opacity="0.22"/>
<rect x="687.3" y="530" width="2.0" height="8" fill="#3f72d1" opacity="0.22"/>
<rect x="689.3" y="530" width="1.9" height="8" fill="#3f72d1" opacity="0.22"/>
<rect x="691.2" y="530" width="1.9" height="8" fill="#3f72d1" opacity="0.22"/>
<rect x="693.2" y="530" width="1.9" height="8" fill="#3f72d1" opacity="0.22"/>
<rect x="695.1" y="530" width="1.9" height="8" fill="#3f72d1" opacity="0.22"/>
<rect x="697.1" y="530" width="1.9" height="8" fill="#3f72d1" opacity="0.22"/>
<rect x="699.0" y="530" width="1.9" height="8" fill="#3f72d1" opacity="0.22"/>
<rect x="700.9" y="530" width="1.9" height="8" fill="#3f72d1" opacity="0.22"/>
<rect x="702.9" y="530" width="1.9" height="8" fill="#3f72d1" opacity="0.22"/>
<rect x="704.8" y="530" width="1.9" height="8" fill="#3f72d1" opacity="0.22"/>
<rect x="706.8" y="530" width="1.9" height="8" fill="#3f72d1" opacity="0.22"/>
<rect x="708.7" y="530" width="1.9" height="8" fill="#3f72d1" opacity="0.22"/>
<rect x="710.6" y="530" width="1.9" height="8" fill="#3f72d1" opacity="0.22"/>
<rect x="712.6" y="530" width="2.0" height="8" fill="#3f72d1" opacity="0.22"/>
<rect x="714.6" y="530" width="1.9" height="8" fill="#3f72d1" opacity="0.22"/>
<rect x="716.5" y="530" width="1.9" height="8" fill="#3f72d1" opacity="0.22"/>
<rect x="718.5" y="530" width="1.9" height="8" fill="#3f72d1" opacity="0.22"/>
<rect x="720.4" y="530" width="1.9" height="8" fill="#3f72d1" opacity="0.22"/>
<rect x="722.4" y="530" width="2.0" height="8" fill="#3f72d1" opacity="0.22"/>
<rect x="724.3" y="530" width="1.9" height="8" fill="#3f72d1" opacity="0.22"/>
<rect x="726.3" y="530" width="1.9" height="8" fill="#3f72d1" opacity="0.22"/>
<rect x="728.2" y="530" width="1.9" height="8" fill="#3f72d1" opacity="0.22"/>
<rect x="730.2" y="530" width="1.9" height="8" fill="#3f72d1" opacity="0.22"/>
<rect x="732.1" y="530" width="1.9" height="8" fill="#3f72d1" opacity="0.22"/>
<rect x="734.0" y="530" width="2.0" height="8" fill="#3f72d1" opacity="0.22"/>
<rect x="736.0" y="530" width="1.9" height="8" fill="#3f72d1" opacity="0.22"/>
<rect x="737.9" y="530" width="1.9" height="8" fill="#3f72d1" opacity="0.22"/>
<rect x="739.9" y="530" width="2.0" height="8" fill="#3f72d1" opacity="0.22"/>
<rect x="741.8" y="530" width="1.9" height="8" fill="#3f72d1" opacity="0.22"/>
<rect x="743.8" y="530" width="1.9" height="8" fill="#3f72d1" opacity="0.22"/>
<rect x="745.7" y="530" width="2.0" height="8" fill="#3f72d1" opacity="0.22"/>
<rect x="747.7" y="530" width="1.9" height="8" fill="#3f72d1" opacity="0.22"/>
<rect x="749.6" y="530" width="1.9" height="8" fill="#3f72d1" opacity="0.22"/>
<rect x="751.5" y="530" width="2.0" height="8" fill="#3f72d1" opacity="0.22"/>
<rect x="753.5" y="530" width="1.9" height="8" fill="#3f72d1" opacity="0.22"/>
<rect x="755.4" y="530" width="1.9" height="8" fill="#3f72d1" opacity="0.22"/>
<rect x="757.4" y="530" width="2.0" height="8" fill="#3f72d1" opacity="0.22"/>
<rect x="759.3" y="530" width="1.9" height="8" fill="#3f72d1" opacity="0.22"/>
<rect x="761.3" y="530" width="1.9" height="8" fill="#3f72d1" opacity="0.22"/>
<rect x="763.2" y="530" width="2.0" height="8" fill="#3f72d1" opacity="0.22"/>
<rect x="765.1" y="530" width="1.9" height="8" fill="#3f72d1" opacity="0.22"/>
<rect x="767.1" y="530" width="1.9" height="8" fill="#3f72d1" opacity="0.22"/>
<rect x="769.0" y="530" width="2.0" height="8" fill="#3f72d1" opacity="0.22"/>
<rect x="771.0" y="530" width="1.9" height="8" fill="#3f72d1" opacity="0.22"/>
<rect x="772.9" y="530" width="1.9" height="8" fill="#3f72d1" opacity="0.22"/>
<rect x="774.8" y="530" width="2.0" height="8" fill="#3f72d1" opacity="0.22"/>
<rect x="776.8" y="530" width="1.9" height="8" fill="#3f72d1" opacity="0.22"/>
<rect x="778.7" y="530" width="2.0" height="8" fill="#3f72d1" opacity="0.22"/>
<rect x="780.8" y="530" width="2.0" height="8" fill="#3f72d1" opacity="0.22"/>
<rect x="782.7" y="530" width="1.9" height="8" fill="#3f72d1" opacity="0.22"/>
<rect x="784.7" y="530" width="1.9" height="8" fill="#3f72d1" opacity="0.22"/>
<rect x="786.6" y="530" width="1.9" height="8" fill="#3f72d1" opacity="0.22"/>
<rect x="788.6" y="530" width="1.9" height="8" fill="#3f72d1" opacity="0.22"/>
<rect x="790.5" y="530" width="1.9" height="8" fill="#3f72d1" opacity="0.22"/>
<rect x="792.4" y="530" width="2.0" height="8" fill="#3f72d1" opacity="0.22"/>
<rect x="794.4" y="530" width="1.9" height="8" fill="#3f72d1" opacity="0.22"/>
<rect x="796.3" y="530" width="1.9" height="8" fill="#3f72d1" opacity="0.22"/>
<rect x="798.3" y="530" width="1.9" height="8" fill="#3f72d1" opacity="0.22"/>
<rect x="800.2" y="530" width="1.9" height="8" fill="#3f72d1" opacity="0.22"/>
<rect x="802.2" y="530" width="1.9" height="8" fill="#3f72d1" opacity="0.22"/>
<rect x="804.1" y="530" width="1.9" height="8" fill="#3f72d1" opacity="0.22"/>
<rect x="806.1" y="530" width="1.9" height="8" fill="#3f72d1" opacity="0.22"/>
<rect x="808.0" y="530" width="1.9" height="8" fill="#3f72d1" opacity="0.22"/>
<rect x="809.9" y="530" width="1.9" height="8" fill="#3f72d1" opacity="0.22"/>
<rect x="811.9" y="530" width="1.9" height="8" fill="#3f72d1" opacity="0.22"/>
<rect x="813.8" y="530" width="2.0" height="8" fill="#3f72d1" opacity="0.22"/>
<rect x="815.8" y="530" width="1.9" height="8" fill="#3f72d1" opacity="0.22"/>
<rect x="817.7" y="530" width="1.9" height="8" fill="#3f72d1" opacity="0.22"/>
<rect x="819.7" y="530" width="1.9" height="8" fill="#3f72d1" opacity="0.22"/>
<rect x="821.6" y="530" width="1.9" height="8" fill="#3f72d1" opacity="0.22"/>
<rect x="823.5" y="530" width="1.9" height="8" fill="#3f72d1" opacity="0.22"/>
<rect x="825.5" y="530" width="2.0" height="8" fill="#3f72d1" opacity="0.22"/>
<rect x="827.4" y="530" width="1.9" height="8" fill="#3f72d1" opacity="0.22"/>
<rect x="829.4" y="530" width="1.9" height="8" fill="#3f72d1" opacity="0.22"/>
<rect x="831.3" y="530" width="1.9" height="8" fill="#3f72d1" opacity="0.22"/>
<rect x="833.3" y="530" width="2.0" height="8" fill="#3f72d1" opacity="0.22"/>
<rect x="835.3" y="530" width="1.9" height="8" fill="#3f72d1" opacity="0.22"/>
<rect x="837.2" y="530" width="2.0" height="8" fill="#3f72d1" opacity="0.22"/>
<rect x="839.2" y="530" width="1.9" height="8" fill="#3f72d1" opacity="0.22"/>
<rect x="841.1" y="530" width="1.9" height="8" fill="#3f72d1" opacity="0.22"/>
<rect x="843.1" y="530" width="2.0" height="8" fill="#3f72d1" opacity="0.22"/>
<rect x="845.0" y="530" width="1.9" height="8" fill="#3f72d1" opacity="0.22"/>
<rect x="846.9" y="530" width="1.9" height="8" fill="#3f72d1" opacity="0.22"/>
<rect x="848.9" y="530" width="1.9" height="8" fill="#3f72d1" opacity="0.22"/>
<rect x="850.8" y="530" width="1.9" height="8" fill="#3f72d1" opacity="0.22"/>
<rect x="852.8" y="530" width="1.9" height="8" fill="#3f72d1" opacity="0.22"/>
<rect x="854.7" y="530" width="1.9" height="8" fill="#3f72d1" opacity="0.22"/>
<rect x="856.7" y="530" width="1.9" height="8" fill="#3f72d1" opacity="0.22"/>
<rect x="858.6" y="530" width="1.9" height="8" fill="#3f72d1" opacity="0.22"/>
<rect x="860.5" y="530" width="2.0" height="8" fill="#3f72d1" opacity="0.22"/>
<rect x="862.5" y="530" width="1.9" height="8" fill="#3f72d1" opacity="0.22"/>
<rect x="864.4" y="530" width="1.9" height="8" fill="#3f72d1" opacity="0.22"/>
<rect x="866.4" y="530" width="1.9" height="8" fill="#3f72d1" opacity="0.22"/>
<rect x="868.3" y="530" width="1.9" height="8" fill="#3f72d1" opacity="0.22"/>
<rect x="870.2" y="530" width="1.9" height="8" fill="#3f72d1" opacity="0.22"/>
<rect x="872.2" y="530" width="1.9" height="8" fill="#3f72d1" opacity="0.22"/>
<rect x="874.1" y="530" width="1.9" height="8" fill="#3f72d1" opacity="0.22"/>
<rect x="876.1" y="530" width="1.9" height="8" fill="#3f72d1" opacity="0.22"/>
<rect x="878.0" y="530" width="1.9" height="8" fill="#3f72d1" opacity="0.22"/>
<rect x="879.9" y="530" width="1.9" height="8" fill="#3f72d1" opacity="0.22"/>
<rect x="881.9" y="530" width="1.9" height="8" fill="#3f72d1" opacity="0.22"/>
<rect x="883.8" y="530" width="1.9" height="8" fill="#3f72d1" opacity="0.22"/>
<rect x="885.8" y="530" width="1.9" height="8" fill="#3f72d1" opacity="0.22"/>
<rect x="887.7" y="530" width="1.9" height="8" fill="#3f72d1" opacity="0.22"/>
<rect x="889.6" y="530" width="2.0" height="8" fill="#3f72d1" opacity="0.22"/>
<rect x="891.6" y="530" width="1.9" height="8" fill="#3f72d1" opacity="0.22"/>
<rect x="893.5" y="530" width="1.9" height="8" fill="#3f72d1" opacity="0.22"/>
<rect x="895.5" y="530" width="1.9" height="8" fill="#3f72d1" opacity="0.22"/>
<rect x="897.4" y="530" width="2.0" height="8" fill="#3f72d1" opacity="0.22"/>
<rect x="899.5" y="530" width="1.9" height="8" fill="#3f72d1" opacity="0.22"/>
<rect x="901.4" y="530" width="2.0" height="8" fill="#3f72d1" opacity="0.22"/>
<rect x="903.4" y="530" width="1.9" height="8" fill="#3f72d1" opacity="0.22"/>
<rect x="905.3" y="530" width="1.9" height="8" fill="#3f72d1" opacity="0.22"/>
<rect x="907.2" y="530" width="1.9" height="8" fill="#3f72d1" opacity="0.22"/>
<rect x="909.2" y="530" width="1.9" height="8" fill="#3f72d1" opacity="0.22"/>
<rect x="911.1" y="530" width="1.9" height="8" fill="#3f72d1" opacity="0.22"/>
<rect x="913.1" y="530" width="1.9" height="8" fill="#3f72d1" opacity="0.22"/>
<rect x="915.0" y="530" width="1.9" height="8" fill="#3f72d1" opacity="0.22"/>
<rect x="916.9" y="530" width="1.9" height="8" fill="#3f72d1" opacity="0.22"/>
<rect x="918.9" y="530" width="1.9" height="8" fill="#3f72d1" opacity="0.22"/>
<rect x="920.8" y="530" width="1.9" height="8" fill="#3f72d1" opacity="0.22"/>
<rect x="922.8" y="530" width="1.9" height="8" fill="#3f72d1" opacity="0.22"/>
<rect x="924.7" y="530" width="1.9" height="8" fill="#3f72d1" opacity="0.22"/>
<rect x="926.7" y="530" width="1.9" height="8" fill="#3f72d1" opacity="0.22"/>
<rect x="928.6" y="530" width="1.9" height="8" fill="#3f72d1" opacity="0.22"/>
<rect x="930.5" y="530" width="1.9" height="8" fill="#3f72d1" opacity="0.22"/>
<rect x="932.5" y="530" width="1.9" height="8" fill="#3f72d1" opacity="0.22"/>
<rect x="934.4" y="530" width="1.9" height="8" fill="#3f72d1" opacity="0.22"/>
<rect x="936.4" y="530" width="1.9" height="8" fill="#3f72d1" opacity="0.22"/>
<rect x="938.3" y="530" width="1.9" height="8" fill="#3f72d1" opacity="0.22"/>
<rect x="940.3" y="530" width="1.9" height="8" fill="#3f72d1" opacity="0.22"/>
<rect x="942.2" y="530" width="1.9" height="8" fill="#3f72d1" opacity="0.22"/>
<rect x="944.1" y="530" width="1.9" height="8" fill="#3f72d1" opacity="0.22"/>
<rect x="946.1" y="530" width="1.9" height="8" fill="#3f72d1" opacity="0.22"/>
<rect x="948.0" y="530" width="1.9" height="8" fill="#3f72d1" opacity="0.22"/>
<rect x="950.0" y="530" width="2.0" height="8" fill="#3f72d1" opacity="0.22"/>
<rect x="952.0" y="530" width="2.0" height="8" fill="#3f72d1" opacity="0.22"/>
<rect x="954.0" y="530" width="1.9" height="8" fill="#3f72d1" opacity="0.22"/>
<rect x="955.9" y="530" width="1.9" height="8" fill="#3f72d1" opacity="0.22"/>
<rect x="957.8" y="530" width="1.9" height="8" fill="#3f72d1" opacity="0.22"/>
<rect x="959.8" y="530" width="1.9" height="8" fill="#3f72d1" opacity="0.22"/>
<rect x="961.7" y="530" width="1.9" height="8" fill="#3f72d1" opacity="0.22"/>
<rect x="963.7" y="530" width="1.9" height="8" fill="#3f72d1" opacity="0.22"/>
<rect x="965.6" y="530" width="1.9" height="8" fill="#3f72d1" opacity="0.22"/>
<rect x="967.6" y="530" width="1.9" height="8" fill="#3f72d1" opacity="0.22"/>
<rect x="969.5" y="530" width="1.9" height="8" fill="#3f72d1" opacity="0.22"/>
<rect x="971.4" y="530" width="1.9" height="8" fill="#3f72d1" opacity="0.22"/>
<rect x="973.4" y="530" width="1.9" height="8" fill="#3f72d1" opacity="0.22"/>
<rect x="975.3" y="530" width="1.9" height="8" fill="#3f72d1" opacity="0.22"/>
<rect x="977.3" y="530" width="2.0" height="8" fill="#3f72d1" opacity="0.22"/>
<rect x="979.2" y="530" width="1.9" height="8" fill="#3f72d1" opacity="0.22"/>
<rect x="981.2" y="530" width="2.0" height="8" fill="#3f72d1" opacity="0.22"/>
<rect x="983.1" y="530" width="1.9" height="8" fill="#3f72d1" opacity="0.22"/>
<rect x="985.0" y="530" width="1.9" height="8" fill="#3f72d1" opacity="0.22"/>
<rect x="987.0" y="530" width="2.0" height="8" fill="#3f72d1" opacity="0.22"/>
<rect x="988.9" y="530" width="1.9" height="8" fill="#3f72d1" opacity="0.22"/>
<rect x="990.9" y="530" width="1.9" height="8" fill="#3f72d1" opacity="0.22"/>
<rect x="992.8" y="530" width="1.9" height="8" fill="#3f72d1" opacity="0.22"/>
<rect x="994.8" y="530" width="1.9" height="8" fill="#3f72d1" opacity="0.22"/>
<rect x="996.7" y="530" width="1.9" height="8" fill="#3f72d1" opacity="0.22"/>
<rect x="998.6" y="530" width="2.0" height="8" fill="#3f72d1" opacity="0.22"/>
<rect x="1000.6" y="530" width="1.9" height="8" fill="#3f72d1" opacity="0.22"/>
<rect x="1002.5" y="530" width="1.9" height="8" fill="#3f72d1" opacity="0.22"/>
<rect x="1004.5" y="530" width="1.9" height="8" fill="#3f72d1" opacity="0.22"/>
<rect x="1006.4" y="530" width="1.9" height="8" fill="#3f72d1" opacity="0.22"/>
<rect x="1008.3" y="530" width="1.9" height="8" fill="#3f72d1" opacity="0.22"/>
<rect x="1010.3" y="530" width="2.0" height="8" fill="#3f72d1" opacity="0.22"/>
<rect x="1012.2" y="530" width="1.9" height="8" fill="#3f72d1" opacity="0.22"/>
<rect x="1014.2" y="530" width="1.9" height="8" fill="#3f72d1" opacity="0.22"/>
<rect x="1016.1" y="530" width="2.0" height="8" fill="#3f72d1" opacity="0.22"/>
<rect x="1018.1" y="530" width="1.9" height="8" fill="#3f72d1" opacity="0.22"/>
<rect x="1020.0" y="530" width="1.9" height="8" fill="#3f72d1" opacity="0.22"/>
<rect x="1021.9" y="530" width="1.9" height="8" fill="#3f72d1" opacity="0.22"/>
<rect x="1023.9" y="530" width="1.9" height="8" fill="#3f72d1" opacity="0.22"/>
<rect x="1025.8" y="530" width="1.9" height="8" fill="#3f72d1" opacity="0.22"/>
<rect x="1027.8" y="530" width="2.0" height="8" fill="#3f72d1" opacity="0.22"/>
<rect x="1029.7" y="530" width="1.9" height="8" fill="#3f72d1" opacity="0.22"/>
<rect x="1031.7" y="530" width="1.9" height="8" fill="#3f72d1" opacity="0.22"/>
<rect x="1033.6" y="530" width="1.9" height="8" fill="#3f72d1" opacity="0.22"/>
<rect x="1035.5" y="530" width="1.9" height="8" fill="#3f72d1" opacity="0.22"/>
<rect x="1037.5" y="530" width="1.9" height="8" fill="#3f72d1" opacity="0.22"/>
<rect x="1039.4" y="530" width="1.9" height="8" fill="#3f72d1" opacity="0.22"/>
<rect x="1041.4" y="530" width="1.9" height="8" fill="#3f72d1" opacity="0.22"/>
<rect x="1043.3" y="530" width="1.9" height="8" fill="#3f72d1" opacity="0.22"/>
<rect x="1045.3" y="530" width="1.9" height="8" fill="#3f72d1" opacity="0.22"/>
<rect x="1047.2" y="530" width="1.9" height="8" fill="#3f72d1" opacity="0.22"/>
<rect x="1049.1" y="530" width="1.9" height="8" fill="#3f72d1" opacity="0.22"/>
<rect x="1051.1" y="530" width="2.0" height="8" fill="#3f72d1" opacity="0.22"/>
<rect x="1053.0" y="530" width="1.9" height="8" fill="#3f72d1" opacity="0.22"/>
<rect x="1055.0" y="530" width="1.9" height="8" fill="#3f72d1" opacity="0.22"/>
<rect x="1056.9" y="530" width="1.9" height="8" fill="#3f72d1" opacity="0.22"/>
<rect x="1058.9" y="530" width="1.9" height="8" fill="#3f72d1" opacity="0.22"/>
<rect x="1060.8" y="530" width="1.9" height="8" fill="#3f72d1" opacity="0.22"/>
<rect x="1062.7" y="530" width="1.9" height="8" fill="#3f72d1" opacity="0.22"/>
<rect x="1064.7" y="530" width="1.9" height="8" fill="#3f72d1" opacity="0.22"/>
<rect x="1066.6" y="530" width="1.9" height="8" fill="#3f72d1" opacity="0.22"/>
<rect x="1068.6" y="530" width="1.9" height="8" fill="#3f72d1" opacity="0.22"/>
<rect x="1070.5" y="530" width="1.9" height="8" fill="#3f72d1" opacity="0.22"/>
<rect x="1072.5" y="530" width="1.9" height="8" fill="#3f72d1" opacity="0.22"/>
<rect x="1074.4" y="530" width="1.9" height="8" fill="#3f72d1" opacity="0.22"/>
<rect x="1076.3" y="530" width="1.9" height="8" fill="#3f72d1" opacity="0.22"/>
<rect x="1078.3" y="530" width="1.9" height="8" fill="#3f72d1" opacity="0.22"/>
<rect x="1080.2" y="530" width="1.9" height="8" fill="#3f72d1" opacity="0.22"/>
<rect x="1082.2" y="530" width="1.9" height="8" fill="#3f72d1" opacity="0.22"/>
<rect x="1084.1" y="530" width="1.9" height="8" fill="#3f72d1" opacity="0.22"/>
<rect x="1086.1" y="530" width="2.0" height="8" fill="#3f72d1" opacity="0.22"/>
<rect x="1088.1" y="530" width="1.9" height="8" fill="#3f72d1" opacity="0.22"/>
<rect x="1090.0" y="530" width="1.9" height="8" fill="#3f72d1" opacity="0.22"/>
<rect x="1091.9" y="530" width="1.9" height="8" fill="#3f72d1" opacity="0.22"/>
<rect x="1093.9" y="530" width="1.9" height="8" fill="#3f72d1" opacity="0.22"/>
<rect x="1095.8" y="530" width="1.9" height="8" fill="#3f72d1" opacity="0.22"/>
<rect x="1097.8" y="530" width="1.9" height="8" fill="#3f72d1" opacity="0.22"/>
<rect x="1099.7" y="530" width="1.9" height="8" fill="#3f72d1" opacity="0.22"/>
<rect x="1101.7" y="530" width="1.9" height="8" fill="#3f72d1" opacity="0.22"/>
<rect x="1103.6" y="530" width="2.0" height="8" fill="#3f72d1" opacity="0.22"/>
<rect x="1105.5" y="530" width="1.9" height="8" fill="#3f72d1" opacity="0.22"/>
<rect x="1107.5" y="530" width="1.9" height="8" fill="#3f72d1" opacity="0.22"/>
<rect x="1109.4" y="530" width="1.9" height="8" fill="#3f72d1" opacity="0.22"/>
<rect x="1111.4" y="530" width="1.9" height="8" fill="#3f72d1" opacity="0.22"/>
<rect x="1113.3" y="530" width="1.9" height="8" fill="#3f72d1" opacity="0.22"/>
<rect x="1115.2" y="530" width="1.9" height="8" fill="#3f72d1" opacity="0.22"/>
<rect x="1117.2" y="530" width="1.9" height="8" fill="#3f72d1" opacity="0.22"/>
<rect x="1119.1" y="530" width="1.9" height="8" fill="#3f72d1" opacity="0.22"/>
<rect x="1121.1" y="530" width="2.0" height="8" fill="#3f72d1" opacity="0.22"/>
<rect x="1123.0" y="530" width="1.9" height="8" fill="#3f72d1" opacity="0.22"/>
<rect x="1125.0" y="530" width="1.9" height="8" fill="#3f72d1" opacity="0.22"/>
<rect x="1126.9" y="530" width="1.9" height="8" fill="#3f72d1" opacity="0.22"/>
<rect x="1128.8" y="530" width="1.9" height="8" fill="#3f72d1" opacity="0.22"/>
<rect x="1130.8" y="530" width="1.9" height="8" fill="#3f72d1" opacity="0.22"/>
<rect x="1132.7" y="530" width="1.9" height="8" fill="#3f72d1" opacity="0.22"/>
<rect x="1134.7" y="530" width="1.9" height="8" fill="#3f72d1" opacity="0.22"/>
<rect x="1136.6" y="530" width="1.9" height="8" fill="#3f72d1" opacity="0.22"/>
<rect x="1138.5" y="530" width="1.9" height="8" fill="#3f72d1" opacity="0.22"/>
<rect x="1140.5" y="530" width="1.9" height="8" fill="#3f72d1" opacity="0.22"/>
<rect x="1142.4" y="530" width="1.9" height="8" fill="#3f72d1" opacity="0.22"/>
<rect x="1144.4" y="530" width="1.9" height="8" fill="#3f72d1" opacity="0.22"/>
<rect x="1146.3" y="530" width="1.9" height="8" fill="#3f72d1" opacity="0.22"/>
<rect x="1148.3" y="530" width="1.9" height="8" fill="#3f72d1" opacity="0.22"/>
<rect x="1150.2" y="530" width="1.9" height="8" fill="#3f72d1" opacity="0.22"/>
<rect x="1152.1" y="530" width="1.9" height="8" fill="#3f72d1" opacity="0.22"/>
<rect x="1154.1" y="530" width="1.9" height="8" fill="#3f72d1" opacity="0.22"/>
<rect x="1156.0" y="530" width="1.9" height="8" fill="#3f72d1" opacity="0.22"/>
<rect x="1158.0" y="530" width="1.9" height="8" fill="#3f72d1" opacity="0.22"/>
<rect x="1159.9" y="530" width="2.0" height="8" fill="#3f72d1" opacity="0.22"/>
<rect x="1161.9" y="530" width="1.9" height="8" fill="#3f72d1" opacity="0.22"/>
<rect x="1163.8" y="530" width="1.9" height="8" fill="#3f72d1" opacity="0.22"/>
<rect x="1165.8" y="530" width="1.9" height="8" fill="#3f72d1" opacity="0.22"/>
<rect x="1167.7" y="530" width="1.9" height="8" fill="#3f72d1" opacity="0.22"/>
<rect x="1169.6" y="530" width="1.9" height="8" fill="#3f72d1" opacity="0.22"/>
<rect x="1171.6" y="530" width="2.0" height="8" fill="#3f72d1" opacity="0.22"/>
<rect x="1173.5" y="530" width="1.9" height="8" fill="#3f72d1" opacity="0.22"/>
<rect x="1175.5" y="530" width="1.9" height="8" fill="#3f72d1" opacity="0.22"/>
<rect x="1177.4" y="530" width="1.9" height="8" fill="#3f72d1" opacity="0.22"/>
<rect x="1179.4" y="530" width="1.9" height="8" fill="#3f72d1" opacity="0.22"/>
<rect x="1181.3" y="530" width="1.9" height="8" fill="#3f72d1" opacity="0.22"/>
<rect x="1183.2" y="530" width="2.0" height="8" fill="#3f72d1" opacity="0.22"/>
<rect x="1185.2" y="530" width="1.9" height="8" fill="#3f72d1" opacity="0.22"/>
<rect x="1187.1" y="530" width="1.9" height="8" fill="#3f72d1" opacity="0.22"/>
<rect x="1189.1" y="530" width="1.9" height="8" fill="#3f72d1" opacity="0.22"/>
<rect x="1191.0" y="530" width="1.9" height="8" fill="#3f72d1" opacity="0.22"/>
<rect x="1192.9" y="530" width="1.9" height="8" fill="#3f72d1" opacity="0.22"/>
<rect x="1194.9" y="530" width="1.9" height="8" fill="#3f72d1" opacity="0.22"/>
<rect x="1196.8" y="530" width="1.9" height="8" fill="#3f72d1" opacity="0.22"/>
<rect x="1198.8" y="530" width="1.9" height="8" fill="#3f72d1" opacity="0.22"/>
<rect x="1200.7" y="530" width="2.0" height="8" fill="#3f72d1" opacity="0.22"/>
<rect x="1202.7" y="530" width="1.9" height="8" fill="#3f72d1" opacity="0.22"/>
<rect x="1204.6" y="530" width="1.9" height="8" fill="#3f72d1" opacity="0.22"/>
<rect x="1206.5" y="530" width="1.9" height="8" fill="#3f72d1" opacity="0.22"/>
<rect x="1208.5" y="530" width="2.0" height="8" fill="#3f72d1" opacity="0.22"/>
<rect x="1210.5" y="530" width="1.9" height="8" fill="#3f72d1" opacity="0.22"/>
<rect x="1212.5" y="530" width="1.9" height="8" fill="#3f72d1" opacity="0.22"/>
<rect x="1214.4" y="530" width="1.9" height="8" fill="#3f72d1" opacity="0.22"/>
<rect x="1216.3" y="530" width="1.9" height="8" fill="#3f72d1" opacity="0.22"/>
<rect x="1218.3" y="530" width="1.9" height="8" fill="#3f72d1" opacity="0.22"/>
<rect x="1220.2" y="530" width="1.9" height="8" fill="#3f72d1" opacity="0.22"/>
<rect x="1222.2" y="530" width="1.9" height="8" fill="#3f72d1" opacity="0.22"/>
<rect x="1224.1" y="530" width="2.0" height="8" fill="#3f72d1" opacity="0.22"/>
<rect x="1226.0" y="530" width="1.9" height="8" fill="#3f72d1" opacity="0.22"/>
<rect x="1228.0" y="530" width="1.9" height="8" fill="#3f72d1" opacity="0.22"/>
<rect x="1229.9" y="530" width="1.9" height="8" fill="#3f72d1" opacity="0.22"/>
<rect x="1231.9" y="530" width="1.9" height="8" fill="#3f72d1" opacity="0.22"/>
<rect x="1233.8" y="530" width="1.9" height="8" fill="#3f72d1" opacity="0.22"/>
<rect x="1235.7" y="530" width="1.9" height="8" fill="#3f72d1" opacity="0.22"/>
<rect x="1237.7" y="530" width="1.9" height="8" fill="#3f72d1" opacity="0.22"/>
<rect x="1239.6" y="530" width="1.9" height="8" fill="#3f72d1" opacity="0.22"/>
<rect x="1241.6" y="530" width="1.9" height="8" fill="#3f72d1" opacity="0.22"/>
<rect x="1243.5" y="530" width="1.9" height="8" fill="#3f72d1" opacity="0.22"/>
<rect x="1245.5" y="530" width="1.9" height="8" fill="#3f72d1" opacity="0.22"/>
<rect x="1247.4" y="530" width="0.6" height="8" fill="#3f72d1" opacity="0.22"/>
<text x="94" y="214" class="label">CPU temperature (C)</text>
<line class="grid" x1="94.0" y1="232.0" x2="94.0" y2="547.0"/>
<line class="grid" x1="94.0" y1="622.0" x2="94.0" y2="752.0"/>
<text class="tick" x="86.0" y="571">0</text>
<text class="tick" x="86.0" y="776">0</text>
<line class="grid" x1="324.8" y1="232.0" x2="324.8" y2="547.0"/>
<line class="grid" x1="324.8" y1="622.0" x2="324.8" y2="752.0"/>
<text class="tick" x="316.8" y="571">4</text>
<text class="tick" x="316.8" y="776">4</text>
<line class="grid" x1="555.6" y1="232.0" x2="555.6" y2="547.0"/>
<line class="grid" x1="555.6" y1="622.0" x2="555.6" y2="752.0"/>
<text class="tick" x="547.6" y="571">8</text>
<text class="tick" x="547.6" y="776">8</text>
<line class="grid" x1="786.4" y1="232.0" x2="786.4" y2="547.0"/>
<line class="grid" x1="786.4" y1="622.0" x2="786.4" y2="752.0"/>
<text class="tick" x="778.4" y="571">12</text>
<text class="tick" x="778.4" y="776">12</text>
<line class="grid" x1="1017.2" y1="232.0" x2="1017.2" y2="547.0"/>
<line class="grid" x1="1017.2" y1="622.0" x2="1017.2" y2="752.0"/>
<text class="tick" x="1009.2" y="571">16</text>
<text class="tick" x="1009.2" y="776">16</text>
<line class="grid" x1="1248.0" y1="232.0" x2="1248.0" y2="547.0"/>
<line class="grid" x1="1248.0" y1="622.0" x2="1248.0" y2="752.0"/>
<text class="tick" x="1240.0" y="571">20</text>
<text class="tick" x="1240.0" y="776">20</text>
<line class="grid" x1="94.0" y1="517.5" x2="1248.0" y2="517.5"/>
<text class="tick" x="50" y="521.5">55</text>
<line class="grid" x1="94.0" y1="468.2" x2="1248.0" y2="468.2"/>
<text class="tick" x="50" y="472.2">60</text>
<line class="grid" x1="94.0" y1="419.0" x2="1248.0" y2="419.0"/>
<text class="tick" x="50" y="423.0">65</text>
<line class="grid" x1="94.0" y1="369.8" x2="1248.0" y2="369.8"/>
<text class="tick" x="50" y="373.8">70</text>
<line class="grid" x1="94.0" y1="320.6" x2="1248.0" y2="320.6"/>
<text class="tick" x="50" y="324.6">75</text>
<line class="grid" x1="94.0" y1="271.4" x2="1248.0" y2="271.4"/>
<text class="tick" x="50" y="275.4">80</text>
<line class="grid" x1="94.0" y1="752.0" x2="1248.0" y2="752.0"/>
<text class="tick" x="50" y="756.0">0</text>
<line class="grid" x1="94.0" y1="720.3" x2="1248.0" y2="720.3"/>
<text class="tick" x="50" y="724.3">50</text>
<line class="grid" x1="94.0" y1="688.6" x2="1248.0" y2="688.6"/>
<text class="tick" x="50" y="692.6">100</text>
<line class="grid" x1="94.0" y1="656.9" x2="1248.0" y2="656.9"/>
<text class="tick" x="50" y="660.9">150</text>
<line class="grid" x1="94.0" y1="625.2" x2="1248.0" y2="625.2"/>
<text class="tick" x="50" y="629.2">200</text>
<line class="axis" x1="94" y1="547" x2="1248" y2="547"/>
<line class="axis" x1="94" y1="752" x2="1248" y2="752"/>
<text class="tick" x="643.0" y="595">minutes</text>
<text class="label" x="94" y="604">Completed requests</text>
<text class="tick" x="643.0" y="800">minutes</text>
<polyline points="94.0,513.5 96.0,475.1 97.9,453.5 99.9,475.1 101.8,448.6 103.8,431.8 105.7,464.3 107.6,442.7 109.6,442.7 111.5,453.5 113.5,431.8 115.4,431.8 117.4,459.4 119.3,426.9 121.3,442.7 123.2,442.7 125.1,426.9 127.1,437.7 129.0,437.7 131.0,421.0 132.9,448.6 134.9,426.9 136.8,421.0 138.8,437.7 140.7,426.9 142.7,405.2 144.7,448.6 146.6,426.9 148.6,405.2 150.5,437.7 152.5,416.1 154.4,405.2 156.4,437.7 158.3,416.1 160.3,394.4 162.2,431.8 164.2,405.2 166.1,399.3 168.0,421.0 170.0,410.2 171.9,394.4 173.9,431.8 175.8,399.3 177.8,388.5 179.7,416.1 181.7,394.4 183.6,383.6 185.6,421.0 187.5,388.5 189.5,383.6 191.4,421.0 193.4,388.5 195.3,377.7 197.3,416.1 199.2,394.4 201.2,372.8 203.1,416.1 205.1,383.6 207.0,372.8 209.0,421.0 210.9,372.8 212.9,372.8 214.8,416.1 216.8,377.7 218.7,361.9 220.7,410.2 222.6,372.8 224.6,361.9 226.5,410.2 228.5,366.9 230.4,366.9 232.4,405.2 234.3,366.9 236.3,361.9 238.2,405.2 240.2,361.9 242.1,356.0 244.1,405.2 246.0,366.9 248.0,361.9 249.9,394.4 251.9,356.0 253.8,351.1 255.8,383.6 257.7,356.0 259.7,351.1 261.6,377.7 263.6,356.0 265.5,345.2 267.5,366.9 269.4,345.2 271.3,356.0 273.3,366.9 275.2,351.1 277.2,356.0 279.1,361.9 281.1,345.2 283.0,377.7 285.0,356.0 287.0,345.2 288.9,366.9 290.8,351.1 292.8,340.3 294.7,366.9 296.7,345.2 298.6,340.3 300.6,366.9 302.5,345.2 304.5,329.5 306.5,372.8 308.5,345.2 310.4,345.2 312.4,372.8 314.3,345.2 316.3,329.5 318.2,361.9 320.2,340.3 322.1,334.4 324.1,361.9 326.0,334.4 328.0,329.5 329.9,366.9 331.9,334.4 333.8,323.5 335.7,361.9 337.7,334.4 339.6,329.5 341.6,356.0 343.5,329.5 345.6,318.6 347.5,361.9 349.5,323.5 351.4,318.6 353.4,356.0 355.3,334.4 357.3,318.6 359.2,366.9 361.2,323.5 363.1,318.6 365.1,366.9 367.0,318.6 369.0,334.4 370.9,366.9 372.9,323.5 374.8,307.8 376.8,361.9 378.7,318.6 380.7,318.6 382.6,340.3 384.6,313.7 386.5,307.8 388.5,345.2 390.4,313.7 392.4,313.7 394.3,323.5 396.3,313.7 398.2,302.9 400.2,323.5 402.1,313.7 404.1,313.7 406.0,318.6 408.0,302.9 409.9,313.7 411.9,323.5 413.8,297.0 415.8,323.5 417.7,329.5 419.7,302.9 421.6,329.5 423.5,318.6 425.5,297.0 427.4,340.3 429.4,318.6 431.3,302.9 433.3,334.4 435.3,302.9 437.2,307.8 439.1,329.5 441.1,302.9 443.1,297.0 445.0,334.4 446.9,307.8 448.9,307.8 450.8,329.5 452.8,307.8 454.7,313.7 456.7,340.3 458.6,297.0 460.6,297.0 462.5,334.4 464.5,297.0 466.4,292.0 468.4,334.4 470.3,292.0 472.3,286.1 474.2,329.5 476.2,302.9 478.1,292.0 480.1,340.3 482.0,307.8 484.0,286.1 485.9,329.5 487.9,302.9 489.8,286.1 491.8,334.4 493.7,292.0 495.7,275.3 497.6,340.3 499.6,292.0 501.5,292.0 503.5,334.4 505.4,292.0 507.4,286.1 509.3,329.5 511.3,302.9 513.2,286.1 515.2,334.4 517.1,292.0 519.1,286.1 521.0,329.5 523.0,286.1 524.9,286.1 526.9,318.6 528.8,286.1 530.8,286.1 532.7,307.8 534.7,286.1 536.6,286.1 538.5,307.8 540.5,286.1 542.4,286.1 544.4,302.9 546.3,292.0 548.3,275.3 550.2,307.8 552.2,286.1 554.1,292.0 556.1,297.0 558.0,286.1 560.0,313.7 561.9,297.0 563.9,270.4 565.8,307.8 567.8,292.0 569.7,275.3 571.7,307.8 573.6,292.0 575.6,270.4 577.5,307.8 579.5,286.1 581.4,270.4 583.4,307.8 585.3,286.1 587.3,275.3 589.2,307.8 591.2,297.0 593.1,281.2 595.1,313.7 597.0,281.2 599.0,275.3 600.9,307.8 602.9,281.2 604.8,275.3 606.8,307.8 608.7,281.2 610.7,275.3 612.6,313.7 614.6,275.3 616.5,264.5 618.5,318.6 620.4,281.2 622.4,264.5 624.3,313.7 626.3,281.2 628.2,270.4 630.1,318.6 632.1,275.3 634.1,264.5 636.0,313.7 638.0,275.3 639.9,270.4 641.8,307.8 643.8,270.4 645.7,264.5 647.7,318.6 649.6,281.2 651.6,264.5 653.5,313.7 655.5,264.5 657.5,264.5 659.4,302.9 661.3,275.3 663.3,259.6 665.2,318.6" fill="none" stroke="#d85a4a" stroke-width="3.1" stroke-linejoin="round" stroke-linecap="round"/>
<polyline points="94.0,502.7 98.0,453.5 101.8,442.7 105.7,486.0 109.6,459.4 113.5,448.6 117.4,464.3 121.3,459.4 125.2,437.7 129.1,453.5 133.0,464.3 136.9,426.9 140.8,442.7 144.6,448.6 148.6,426.9 152.4,431.8 156.3,448.6 160.2,421.0 164.1,421.0 168.0,442.7 171.9,410.2 175.8,421.0 179.7,448.6 183.6,410.2 187.5,410.2 191.4,437.7 195.3,394.4 199.2,399.3 203.0,437.7 206.9,388.5 210.8,394.4 214.7,426.9 218.6,388.5 222.5,399.3 226.4,426.9 230.3,377.7 234.2,377.7 238.1,416.1 242.0,366.9 245.9,377.7 249.7,421.0 253.6,366.9 257.5,372.8 261.4,421.0 265.3,361.9 269.2,366.9 273.1,394.4 277.0,366.9 280.9,410.2 284.9,361.9 288.8,399.3 292.7,356.0 296.6,372.8 300.5,377.7 304.4,356.0 308.3,372.8 312.1,388.5 316.0,372.8 319.9,366.9 323.8,399.3 327.7,361.9 331.6,356.0 335.4,383.6 339.3,377.7 343.2,351.1 347.1,399.3 351.0,356.0 354.9,351.1 358.8,383.6 362.7,383.6 366.6,351.1 370.4,394.4 374.3,345.2 378.2,345.2 382.1,388.5 386.0,377.7 389.9,334.4 393.8,399.3 397.6,383.6 401.5,351.1 405.4,388.5 409.3,334.4 413.2,340.3 417.1,388.5 421.0,383.6 424.9,334.4 428.7,405.2 432.6,388.5 436.5,345.2 440.4,351.1 444.3,377.7 448.2,329.5 452.1,361.9 455.9,377.7 459.8,329.5 463.7,356.0 467.6,377.7 471.5,329.5 475.4,356.0 479.3,383.6 483.2,334.4 487.1,345.2 490.9,377.7 494.8,356.0 498.7,345.2 502.6,394.4 506.6,366.9 510.5,340.3 514.4,383.6 518.2,377.7 522.1,334.4 526.0,394.4 529.9,366.9 533.8,345.2 537.7,388.5 541.6,372.8 545.4,356.0 549.3,388.5 553.2,372.8 557.1,329.5 561.0,394.4 564.8,377.7 568.7,340.3 572.7,388.5 576.6,372.8 580.5,340.3 584.3,383.6 588.2,372.8 592.1,334.4 596.0,394.4 599.9,377.7 603.8,334.4 607.7,388.5 611.5,377.7 615.4,334.4 619.3,377.7 623.2,383.6 627.1,323.5 631.0,351.1 634.9,377.7 638.8,323.5 642.7,356.0 646.5,377.7 650.4,329.5 654.3,351.1 658.2,377.7 662.1,334.4 666.0,345.2 669.9,372.8 673.7,345.2 677.6,340.3 681.5,383.6 685.4,361.9 689.3,340.3 693.1,377.7 697.0,356.0 700.9,345.2 704.8,372.8 708.7,356.0 712.6,340.3 716.5,383.6 720.4,361.9 724.3,323.5 728.2,366.9 732.1,361.9 736.0,334.4 739.9,377.7 743.7,361.9 747.6,323.5 751.5,383.6 755.4,361.9 759.3,323.5 763.2,377.7 767.1,366.9 771.0,323.5 774.8,383.6 778.7,366.9 782.7,323.5 786.6,366.9 790.5,372.8 794.4,318.6 798.3,345.2 802.1,361.9 806.0,313.7 809.9,345.2 813.8,372.8 817.7,318.6 821.6,340.3 825.5,372.8 829.4,318.6 833.2,334.4 837.2,377.7 841.1,340.3 845.0,340.3 848.9,366.9 852.7,345.2 856.6,334.4 860.5,372.8 864.4,356.0 868.3,329.5 872.2,356.0 876.0,356.0 879.9,323.5 883.8,366.9 887.7,351.1 891.6,323.5 895.5,366.9 899.4,356.0 903.3,323.5 907.2,377.7 911.1,351.1 915.0,313.7 918.9,377.7 922.7,361.9 926.6,318.6 930.5,372.8 934.4,356.0 938.3,318.6 942.2,377.7 946.1,361.9 949.9,313.7 953.9,356.0 957.8,361.9 961.7,307.8 965.6,345.2 969.5,366.9 973.4,318.6 977.2,351.1 981.1,361.9 985.0,318.6 988.9,334.4 992.8,361.9 996.7,318.6 1000.6,329.5 1004.4,361.9 1008.3,329.5 1012.2,323.5 1016.1,361.9 1020.0,340.3 1023.9,323.5 1027.7,372.8 1031.6,340.3 1035.5,318.6 1039.4,366.9 1043.3,345.2 1047.2,318.6 1051.1,366.9 1055.0,334.4 1058.8,323.5 1062.7,372.8 1066.6,345.2 1070.5,318.6 1074.4,366.9 1078.3,351.1 1082.1,307.8 1086.0,372.8 1090.0,361.9 1093.9,329.5 1097.8,372.8 1101.7,356.0 1105.6,313.7 1109.4,372.8 1113.3,356.0 1117.2,313.7 1121.1,372.8 1125.0,351.1 1128.9,307.8 1132.7,361.9 1136.6,345.2 1140.5,307.8 1144.4,345.2 1148.3,351.1 1152.2,323.5 1156.0,334.4 1159.9,356.0 1163.8,292.0 1167.7,323.5 1171.6,361.9 1175.5,307.8 1179.4,329.5 1183.3,356.0 1187.2,323.5 1191.1,323.5 1194.9,361.9 1198.8,334.4 1202.7,323.5 1206.6,351.1 1210.5,340.3 1214.4,323.5 1218.3,361.9 1222.2,361.9 1226.1,313.7 1230.0,366.9 1233.9,345.2 1237.7,313.7 1241.6,361.9 1245.5,340.3 1247.4,366.9" fill="none" stroke="#3f72d1" stroke-width="3.1" stroke-linejoin="round" stroke-linecap="round"/>
<polyline points="94.0,502.7 97.9,491.9 101.8,426.9 105.7,453.5 109.6,470.2 113.5,416.1 117.4,448.6 121.3,464.3 125.2,405.2 129.1,431.8 133.0,459.4 136.9,405.2 140.8,421.0 144.7,459.4 148.6,405.2 152.5,405.2 156.4,453.5 160.3,416.1 164.2,410.2 168.1,448.6 172.0,421.0 175.9,399.3 179.8,442.7 183.7,426.9 187.6,394.4 191.4,442.7 195.3,416.1 199.2,388.5 203.1,437.7 207.0,421.0 210.9,388.5 214.8,437.7 218.7,426.9 222.6,383.6 226.5,431.8 230.4,421.0 234.3,372.8 238.2,426.9 242.1,416.1 246.0,372.8 249.9,426.9 253.8,410.2 257.7,372.8 261.6,388.5 265.5,416.1 269.4,361.9 273.3,388.5 277.2,410.2 281.1,361.9 285.0,383.6 288.9,421.0 292.8,351.1 296.7,366.9 300.5,405.2 304.4,366.9 308.3,366.9 312.2,410.2 316.1,372.8 320.1,366.9 324.0,405.2 327.9,383.6 331.8,356.0 335.7,399.3 339.6,394.4 343.5,356.0 347.4,399.3 351.3,388.5 355.2,356.0 359.1,394.4 363.0,394.4 366.9,351.1 370.8,405.2 374.7,383.6 378.6,351.1 382.5,399.3 386.4,394.4 390.3,345.2 394.2,383.6 398.1,394.4 402.0,340.3 405.9,366.9 409.8,388.5 413.7,340.3 417.6,361.9 421.5,383.6 425.4,334.4 429.3,351.1 433.2,388.5 437.1,329.5 441.0,351.1 444.8,388.5 448.7,356.0 452.6,345.2 456.5,383.6 460.4,361.9 464.3,334.4 468.2,383.6 472.1,356.0 476.0,334.4 479.9,383.6 483.8,366.9 487.7,329.5 491.6,377.7 495.5,372.8 499.4,334.4 503.3,383.6 507.2,366.9 511.1,334.4 515.1,377.7 519.0,372.8 522.9,323.5 526.7,388.5 530.6,366.9 534.6,323.5 538.4,366.9 542.3,372.8 546.3,329.5 550.2,345.2 554.1,372.8 558.0,313.7 561.9,361.9 565.8,372.8 569.7,313.7 573.6,334.4 577.5,366.9 581.4,323.5 585.3,334.4 589.2,366.9 593.1,340.3 597.0,323.5 600.8,372.8 604.7,351.1 608.6,323.5 612.5,366.9 616.4,356.0 620.3,334.4 624.2,366.9 628.1,345.2 632.0,323.5 635.9,366.9 639.8,351.1 643.7,329.5 647.6,377.7 651.5,351.1 655.4,318.6 659.3,372.8 663.2,361.9 667.1,318.6 671.0,372.8 675.0,366.9 678.9,318.6 682.8,340.3 686.7,366.9 690.7,323.5 694.6,340.3 698.5,366.9 702.4,307.8 706.3,329.5 710.2,356.0 714.1,313.7 717.9,318.6 721.8,361.9 725.7,318.6 729.6,318.6 733.5,366.9 737.4,340.3 741.3,323.5 745.2,361.9 749.1,345.2 753.0,318.6 756.9,361.9 760.8,340.3 764.7,313.7 768.6,361.9 772.5,356.0 776.4,323.5 780.3,356.0 784.2,345.2 788.1,302.9 792.0,356.0 795.9,361.9 799.8,307.8 803.7,366.9 807.5,351.1 811.4,307.8 815.4,351.1 819.2,356.0 823.2,313.7 827.1,340.3 830.9,351.1 834.9,307.8 838.7,334.4 842.6,366.9 846.5,302.9 850.4,329.5 854.3,356.0 858.2,307.8 862.1,318.6 866.0,356.0 869.9,318.6 873.8,313.7 877.7,356.0 881.6,329.5 885.5,313.7 889.5,351.1 893.4,340.3 897.3,313.7 901.2,361.9 905.1,340.3 909.0,307.8 912.8,366.9 916.7,329.5 920.6,302.9 924.5,356.0 928.4,351.1 932.3,313.7 936.2,366.9 940.1,345.2 944.0,307.8 947.9,356.0 951.9,351.1 955.8,292.0 959.7,345.2 963.6,351.1 967.5,297.0 971.4,329.5 975.3,356.0 979.2,302.9 983.1,329.5 987.0,361.9 990.9,297.0 994.8,307.8 998.7,356.0 1002.6,307.8 1006.5,313.7 1010.4,356.0 1014.3,323.5 1018.2,307.8 1022.0,351.1 1025.9,323.5 1029.9,313.7 1033.7,356.0 1037.7,334.4 1041.6,307.8 1045.5,356.0 1049.4,340.3 1053.3,302.9 1057.2,361.9 1061.0,345.2 1064.9,307.8 1068.8,345.2 1072.7,334.4 1076.6,297.0 1080.5,366.9 1084.4,345.2 1088.3,307.8 1092.2,351.1 1096.1,356.0 1100.0,297.0 1103.9,334.4 1107.8,345.2 1111.7,302.9 1115.6,323.5 1119.5,345.2 1123.4,297.0 1127.3,318.6 1131.2,361.9 1135.1,292.0 1139.0,323.5 1142.9,345.2 1146.8,292.0 1150.7,307.8 1154.6,345.2 1158.5,318.6 1162.4,302.9 1166.3,345.2 1170.2,323.5 1174.1,318.6 1178.0,345.2 1181.9,329.5 1185.8,307.8 1189.6,351.1 1193.5,334.4 1197.4,302.9 1201.3,351.1 1205.2,340.3 1209.1,307.8 1213.0,366.9 1216.9,329.5 1220.8,302.9 1224.7,356.0 1228.6,340.3 1232.5,302.9 1236.5,356.0 1240.4,340.3 1244.3,292.0 1246.2,340.3" fill="none" stroke="#20a37a" stroke-width="3.1" stroke-linejoin="round" stroke-linecap="round"/>
<polyline points="94.0,752.0 99.4,751.4 103.8,750.7 109.6,750.1 115.4,749.5 121.1,748.8 126.9,748.2 132.7,747.6 138.5,746.9 144.2,746.3 150.0,745.7 155.8,745.0 161.6,744.4 167.4,743.8 173.2,743.1 179.0,742.5 184.7,741.9 190.5,741.2 196.3,740.6 202.0,740.0 207.8,739.3 213.6,738.7 219.4,738.0 225.1,737.4 230.9,736.8 236.7,736.1 242.4,735.5 248.2,734.9 254.0,734.2 259.8,733.6 265.5,733.0 271.3,732.3 277.1,731.7 282.8,731.1 288.6,730.4 294.4,729.8 300.1,729.2 305.9,728.5 311.7,727.9 317.5,727.3 323.2,726.6 329.0,726.0 334.8,725.4 340.5,724.7 346.3,724.1 352.1,723.5 357.8,722.8 363.6,722.2 369.4,721.6 375.2,720.9 380.9,720.3 386.7,719.7 392.5,719.0 398.2,718.4 404.0,717.8 409.8,717.1 415.5,716.5 421.3,715.9 427.1,715.2 432.9,714.6 438.6,714.0 444.4,713.3 450.2,712.7 455.9,712.0 461.7,711.4 467.5,710.8 473.2,710.1 479.0,709.5 484.8,708.9 490.5,708.2 496.3,707.6 502.1,707.0 507.8,706.3 513.6,705.7 519.4,705.1 525.2,704.4 530.9,703.8 536.7,703.2 542.5,702.5 548.2,701.9 554.0,701.3 559.8,700.6 565.6,700.0 571.3,699.4 577.1,698.7 582.9,698.1 588.7,697.5 594.4,696.8 600.2,696.2 606.0,695.6 611.7,694.9 617.5,694.3 623.3,693.7 629.0,693.0 634.8,692.4 640.6,691.8 646.3,691.1 652.1,690.5 657.9,689.9 663.6,689.2 669.4,688.6" fill="none" stroke="#d85a4a" stroke-width="3.0" stroke-linejoin="round" stroke-linecap="round"/>
<polyline points="94.0,752.0 99.1,751.4 103.8,750.7 109.5,750.1 115.3,749.5 121.1,748.8 126.9,748.2 132.6,747.6 138.4,746.9 144.2,746.3 149.9,745.7 155.7,745.0 161.5,744.4 167.2,743.8 173.0,743.1 178.8,742.5 184.6,741.9 190.3,741.2 196.1,740.6 201.9,740.0 207.7,739.3 213.5,738.7 219.3,738.0 225.1,737.4 230.8,736.8 236.6,736.1 242.4,735.5 248.1,734.9 253.9,734.2 259.7,733.6 265.5,733.0 271.2,732.3 277.0,731.7 284.8,731.1 287.3,730.4 294.3,729.8 300.1,729.2 305.9,728.5 311.6,727.9 315.8,727.3 321.6,726.6 329.0,726.0 334.7,725.4 338.9,724.7 344.6,724.1 352.0,723.5 357.8,722.8 361.9,722.2 367.7,721.6 375.1,720.9 380.9,720.3 385.0,719.7 390.8,719.0 396.6,718.4 404.0,717.8 409.7,717.1 413.9,716.5 419.6,715.9 425.4,715.2 431.2,714.6 438.6,714.0 442.7,713.3 448.5,712.7 454.3,712.0 460.0,711.4 465.8,710.8 471.6,710.1 477.4,709.5 483.1,708.9 488.9,708.2 494.7,707.6 500.4,707.0 506.2,706.3 512.0,705.7 517.7,705.1 523.5,704.4 529.3,703.8 535.1,703.2 540.8,702.5 546.6,701.9 552.4,701.3 558.1,700.6 563.9,700.0 569.7,699.4 575.4,698.7 581.2,698.1 587.0,697.5 592.8,696.8 598.5,696.2 604.3,695.6 610.1,694.9 615.8,694.3 621.6,693.7 627.4,693.0 633.2,692.4 638.9,691.8 644.7,691.1 650.5,690.5 656.2,689.9 662.0,689.2 667.8,688.6 673.5,688.0 679.3,687.3 685.1,686.7 690.8,686.0 696.6,685.4 702.4,684.8 708.2,684.1 713.9,683.5 719.7,682.9 725.5,682.2 731.2,681.6 737.0,681.0 742.8,680.3 748.6,679.7 754.3,679.1 760.1,678.4 765.9,677.8 771.6,677.2 777.4,676.5 783.2,675.9 788.9,675.3 794.7,674.6 800.5,674.0 806.3,673.4 812.0,672.7 817.8,672.1 823.6,671.5 829.3,670.8 835.1,670.2 840.9,669.6 846.6,668.9 852.4,668.3 858.2,667.7 863.9,667.0 869.7,666.4 875.5,665.8 881.3,665.1 887.0,664.5 892.8,663.9 898.6,663.2 904.3,662.6 910.1,662.0 915.9,661.3 921.6,660.7 927.4,660.0 933.2,659.4 939.0,658.8 944.7,658.1 950.5,657.5 956.3,656.9 962.0,656.2 967.8,655.6 973.6,655.0 979.3,654.3 985.1,653.7 990.9,653.1 996.7,652.4 1002.4,651.8 1008.2,651.2 1014.0,650.5 1019.7,649.9 1025.5,649.3 1031.3,648.6 1037.0,648.0 1042.8,647.4 1048.6,646.7 1054.4,646.1 1060.1,645.5 1065.9,644.8 1071.7,644.2 1077.4,643.6 1083.2,642.9 1089.0,642.3 1094.7,641.7 1100.5,641.0 1106.3,640.4 1112.1,639.8 1117.8,639.1 1123.6,638.5 1129.4,637.9 1135.1,637.2 1140.9,636.6 1146.7,636.0 1152.5,635.3 1158.2,634.7 1164.0,634.0 1169.8,633.4 1175.5,632.8 1181.4,632.1 1187.1,631.5 1192.8,630.9 1198.6,630.2 1204.4,629.6 1210.1,629.0 1215.9,628.3 1221.7,627.7 1227.5,627.1 1233.2,626.4 1239.0,625.8 1244.8,625.2" fill="none" stroke="#3f72d1" stroke-width="3.0" stroke-linejoin="round" stroke-linecap="round"/>
<polyline points="94.0,752.0 96.5,751.4 102.3,750.7 108.1,750.1 113.9,749.5 119.6,748.8 125.4,748.2 131.2,747.6 137.0,746.9 142.7,746.3 148.5,745.7 154.3,745.0 160.1,744.4 165.8,743.8 171.6,743.1 177.4,742.5 183.2,741.9 188.9,741.2 194.7,740.6 200.5,740.0 206.2,739.3 212.0,738.7 217.8,738.0 223.6,737.4 229.3,736.8 235.1,736.1 240.9,735.5 246.6,734.9 252.4,734.2 258.2,733.6 264.0,733.0 269.7,732.3 275.5,731.7 281.3,731.1 287.1,730.4 292.8,729.8 298.7,729.2 304.3,728.5 310.1,727.9 315.9,727.3 321.7,726.6 327.4,726.0 333.2,725.4 339.0,724.7 344.7,724.1 350.5,723.5 356.3,722.8 362.0,722.2 367.8,721.6 373.6,720.9 379.4,720.3 385.1,719.7 390.9,719.0 396.7,718.4 402.4,717.8 408.2,717.1 414.0,716.5 419.8,715.9 425.5,715.2 431.3,714.6 437.1,714.0 442.8,713.3 448.6,712.7 454.4,712.0 460.2,711.4 465.9,710.8 471.7,710.1 477.5,709.5 483.2,708.9 489.0,708.2 494.8,707.6 500.5,707.0 506.3,706.3 512.1,705.7 517.8,705.1 523.6,704.4 529.4,703.8 535.2,703.2 540.9,702.5 546.7,701.9 552.5,701.3 558.2,700.6 564.0,700.0 569.8,699.4 575.5,698.7 581.3,698.1 587.1,697.5 592.9,696.8 598.6,696.2 604.4,695.6 610.2,694.9 615.9,694.3 621.7,693.7 627.5,693.0 633.2,692.4 639.0,691.8 644.8,691.1 650.5,690.5 656.3,689.9 662.1,689.2 667.9,688.6 673.6,688.0 679.4,687.3 685.2,686.7 690.9,686.0 696.7,685.4 702.5,684.8 708.3,684.1 714.0,683.5 719.8,682.9 725.6,682.2 731.3,681.6 737.1,681.0 742.9,680.3 748.6,679.7 754.4,679.1 760.2,678.4 766.0,677.8 771.7,677.2 777.5,676.5 783.3,675.9 789.0,675.3 794.8,674.6 800.6,674.0 806.4,673.4 812.1,672.7 817.9,672.1 823.7,671.5 829.4,670.8 835.2,670.2 841.0,669.6 846.7,668.9 852.5,668.3 858.3,667.7 864.0,667.0 869.8,666.4 875.6,665.8 881.3,665.1 887.1,664.5 892.9,663.9 898.7,663.2 904.4,662.6 910.2,662.0 916.0,661.3 921.7,660.7 927.5,660.0 933.3,659.4 939.0,658.8 944.8,658.1 950.6,657.5 956.4,656.9 962.1,656.2 967.9,655.6 973.7,655.0 979.5,654.3 985.2,653.7 991.0,653.1 996.8,652.4 1002.5,651.8 1008.3,651.2 1014.1,650.5 1019.8,649.9 1025.6,649.3 1031.4,648.6 1037.1,648.0 1042.9,647.4 1048.7,646.7 1054.4,646.1 1060.2,645.5 1066.0,644.8 1071.8,644.2 1077.5,643.6 1083.3,642.9 1089.1,642.3 1094.8,641.7 1100.6,641.0 1106.4,640.4 1112.2,639.8 1117.9,639.1 1123.7,638.5 1129.5,637.9 1135.2,637.2 1141.0,636.6 1146.8,636.0 1152.6,635.3 1158.3,634.7 1164.1,634.0 1169.8,633.4 1175.6,632.8 1181.4,632.1 1187.2,631.5 1192.9,630.9 1198.7,630.2 1204.5,629.6 1210.2,629.0 1216.0,628.3 1221.8,627.7 1227.5,627.1 1233.3,626.4 1239.1,625.8 1244.9,625.2" fill="none" stroke="#20a37a" stroke-width="3.0" stroke-linejoin="round" stroke-linecap="round"/>
<circle cx="665.2" cy="318.6" r="4.5" fill="#d85a4a"/>
<circle cx="669.4" cy="688.6" r="4.5" fill="#d85a4a"/>
<circle cx="1247.4" cy="366.9" r="4.5" fill="#3f72d1"/>
<circle cx="1244.8" cy="625.2" r="4.5" fill="#3f72d1"/>
<circle cx="1246.2" cy="340.3" r="4.5" fill="#20a37a"/>
<circle cx="1244.9" cy="625.2" r="4.5" fill="#20a37a"/>
<line x1="92" y1="786" x2="124" y2="786" stroke="#d85a4a" stroke-width="4" stroke-linecap="round"/>
<text x="134" y="791" class="legend">Q8 fixed</text>
<line x1="282" y1="786" x2="314" y2="786" stroke="#3f72d1" stroke-width="4" stroke-linecap="round"/>
<text x="324" y="791" class="legend">Controller</text>
<line x1="472" y1="786" x2="504" y2="786" stroke="#20a37a" stroke-width="4" stroke-linecap="round"/>
<text x="514" y="791" class="legend">Q4 fixed</text>
<rect x="662" y="778" width="32" height="8" fill="#3f72d1" opacity="0.22"/>
<text x="704" y="791" class="small">controller routed to Q4</text>
<text x="48" y="826" class="note">N=3 aggregate: Q8 fixed throttled 3/3; controller and Q4 fixed completed 3/3 with no throttle. Output quality, long-run stability, hardware wear, and energy efficiency were not evaluated.</text>
</svg>
